<?xml version="1.0" encoding="UTF-8"?>
<svg version="1.1" xmlns="http://www.w3.org/2000/svg" width="500" height="500">
<path d="M0 0 C6.51223341 0.41438205 12.81050218 0.49372499 19.3125 -0.0625 C28.29398008 -0.7485226 33.94547887 0.73936179 41.5625 5.5 C41.5625 6.16 41.5625 6.82 41.5625 7.5 C42.2225 7.5 42.8825 7.5 43.5625 7.5 C51.12245442 17.42244018 50.43165347 28.5858399 49.5625 40.5 C48.807943 45.16407383 47.4309713 49.16877274 45.5625 53.5 C45.26166504 54.20833984 44.96083008 54.91667969 44.65087891 55.64648438 C40.02175556 66.40060498 34.58686965 76.31021649 27.75976562 85.82226562 C26.89890826 87.0285894 26.05588769 88.2477154 25.22460938 89.47460938 C24.05319292 91.18456868 22.81283635 92.84687074 21.5625 94.5 C20.9025 94.5 20.2425 94.5 19.5625 94.5 C19.335625 95.20125 19.10875 95.9025 18.875 96.625 C17.5625 99.5 17.5625 99.5 14.99023438 102.10864258 C11.64633309 106.06597104 12.05076263 109.6694388 12.40625 114.63671875 C12.44951416 115.53253662 12.49277832 116.42835449 12.53735352 117.35131836 C12.68664392 120.2987303 12.87402212 123.2423553 13.0625 126.1875 C13.17577384 128.25030098 13.28707455 130.31321117 13.39648438 132.3762207 C13.74510891 138.7535145 14.14872326 145.12664751 14.5625 151.5 C14.6258252 152.49241699 14.68915039 153.48483398 14.75439453 154.50732422 C15.74331309 170.00210295 16.7478876 185.50242155 18.12579346 200.96824646 C18.29851244 202.90723954 18.46480539 204.84680172 18.63085938 206.78637695 C18.82742685 209.04674644 19.0383734 211.30593887 19.26757812 213.56323242 C19.74528926 219.08289287 19.85940809 222.75124248 16.5625 227.5 C15.263125 228.7065625 15.263125 228.7065625 13.9375 229.9375 C10.98322273 233.12500968 11.00813355 235.26648125 10.5625 239.5 C11.40506348 239.47643433 11.40506348 239.47643433 12.26464844 239.45239258 C38.13631603 238.83052795 68.92528586 240.99556979 89.5625 258.5 C92.16204386 261.35949824 92.96095287 263.13873238 92.875 267 C92.87113281 267.7528125 92.86726562 268.505625 92.86328125 269.28125 C92.53394914 271.71060894 91.77059315 273.38222715 90.5625 275.5 C89.9025 275.5 89.2425 275.5 88.5625 275.5 C88.5625 276.16 88.5625 276.82 88.5625 277.5 C87.9025 277.5 87.2425 277.5 86.5625 277.5 C86.5625 278.16 86.5625 278.82 86.5625 279.5 C63.65753757 293.92164301 35.05779606 295.72989582 8.75 295.75 C7.38030563 295.75151062 7.38030563 295.75151062 5.98294067 295.75305176 C-7.69433703 295.74284763 -21.00209733 295.28491259 -34.4375 292.5 C-35.15502441 292.36078125 -35.87254883 292.2215625 -36.61181641 292.078125 C-49.62331825 289.49673864 -65.67582271 285.11796486 -74.4375 274.5 C-76.46770681 270.98774223 -76.92744929 268.58291076 -76.4375 264.5 C-71.1559313 254.3593881 -61.85491677 250.10592757 -51.4375 246.5 C-32.72289671 240.72820646 -13.94208708 238.97126119 5.5625 239.5 C5.29477504 238.04717349 5.01190753 236.59713182 4.72265625 235.1484375 C4.48881226 233.93679932 4.48881226 233.93679932 4.25024414 232.70068359 C3.25414544 229.51330918 1.27388576 228.30759051 -1.4375 226.5 C-4.58606623 217.05430131 -2.06517931 204.96387224 -1.32632446 195.12820435 C-0.97382578 190.4170544 -0.63879562 185.70467254 -0.3046875 180.9921875 C-0.2340358 179.9961702 -0.16338409 179.00015289 -0.09059143 177.97395325 C0.69414139 166.79799328 1.38470166 155.61656785 2.04940796 144.43289185 C2.18201234 142.20484371 2.31596118 139.97687514 2.45132446 137.74899292 C2.81190315 131.80092942 3.14535981 125.85286777 3.43423462 119.90087891 C3.54522269 117.82339774 3.69697243 115.7481696 3.85620117 113.67382812 C4.25811945 106.20577575 2.40316434 102.42884968 -2.5 96.875 C-3.69389366 95.42284871 -4.88660919 93.96972799 -6.078125 92.515625 C-6.65626953 91.82919922 -7.23441406 91.14277344 -7.83007812 90.43554688 C-9.92928626 87.90782481 -11.85205927 85.30721376 -13.75 82.625 C-14.28238281 81.88507813 -14.81476563 81.14515625 -15.36328125 80.3828125 C-16.4375 78.5 -16.4375 78.5 -16.4375 75.5 C-17.0975 75.5 -17.7575 75.5 -18.4375 75.5 C-18.4375 74.51 -18.4375 73.52 -18.4375 72.5 C-19.0975 72.5 -19.7575 72.5 -20.4375 72.5 C-28.95330129 55.61631456 -37.66604128 37.2232698 -32.48046875 17.94140625 C-29.49313894 10.19331592 -25.53700197 5.54009478 -18.4765625 1.296875 C-12.45949011 -1.05462455 -6.2868341 -0.45331895 0 0 Z " fill="#D55002" transform="translate(236.4375,146.5)"/>
<path d="M0 0 C6.51223341 0.41438205 12.81050218 0.49372499 19.3125 -0.0625 C28.29398008 -0.7485226 33.94547887 0.73936179 41.5625 5.5 C41.5625 6.16 41.5625 6.82 41.5625 7.5 C42.2225 7.5 42.8825 7.5 43.5625 7.5 C51.12245442 17.42244018 50.43165347 28.5858399 49.5625 40.5 C48.807943 45.16407383 47.4309713 49.16877274 45.5625 53.5 C45.26166504 54.20833984 44.96083008 54.91667969 44.65087891 55.64648438 C40.02175556 66.40060498 34.58686965 76.31021649 27.75976562 85.82226562 C26.89890826 87.0285894 26.05588769 88.2477154 25.22460938 89.47460938 C24.05319292 91.18456868 22.81283635 92.84687074 21.5625 94.5 C20.9025 94.5 20.2425 94.5 19.5625 94.5 C19.335625 95.20125 19.10875 95.9025 18.875 96.625 C17.5625 99.5 17.5625 99.5 14.99023438 102.11743164 C11.67268105 106.04387921 12.04787056 109.5643033 12.40625 114.49609375 C12.4496048 115.38219833 12.49295959 116.26830292 12.53762817 117.18125916 C12.68717672 120.1020038 12.87446418 123.01900136 13.0625 125.9375 C13.17448588 127.97009901 13.28431687 130.00281779 13.39208984 132.03564453 C13.68507743 137.41290255 14.01287042 142.78742591 14.35241699 148.16192627 C14.56434923 151.52938297 14.76988902 154.89717531 14.97363281 158.26513672 C15.78737765 171.68023761 16.65566119 185.09087677 17.5625 198.5 C11.6225 198.17 5.6825 197.84 -0.4375 197.5 C-0.5986402 184.64381443 0.02071623 172.00215999 1 159.1875 C1.27279431 155.54580953 1.54171129 151.90384696 1.80859375 148.26171875 C1.87435608 147.37292526 1.94011841 146.48413177 2.00787354 145.56840515 C2.52649089 138.40116385 2.90814224 131.23113782 3.20957947 124.05155945 C3.40054145 119.75017809 3.79258596 115.57532785 4.4375 111.3125 C4.4256904 102.9867312 -2.75840546 96.45709804 -7.83007812 90.43554688 C-9.92928626 87.90782481 -11.85205927 85.30721376 -13.75 82.625 C-14.28238281 81.88507813 -14.81476563 81.14515625 -15.36328125 80.3828125 C-16.4375 78.5 -16.4375 78.5 -16.4375 75.5 C-17.0975 75.5 -17.7575 75.5 -18.4375 75.5 C-18.4375 74.51 -18.4375 73.52 -18.4375 72.5 C-19.0975 72.5 -19.7575 72.5 -20.4375 72.5 C-28.95330129 55.61631456 -37.66604128 37.2232698 -32.48046875 17.94140625 C-29.49313894 10.19331592 -25.53700197 5.54009478 -18.4765625 1.296875 C-12.45949011 -1.05462455 -6.2868341 -0.45331895 0 0 Z " fill="#027169" transform="translate(236.4375,146.5)"/>
<path d="M0 0 C0.33 0 0.66 0 1 0 C1 4.95 1 9.9 1 15 C-0.31871094 15.09796875 -1.63742188 15.1959375 -2.99609375 15.296875 C-28.91698549 16.78577642 -28.91698549 16.78577642 -50.7890625 29.00390625 C-52.54747539 31.90245136 -52.54349259 33.6711079 -52 37 C-45.30343078 46.46756338 -31.25912047 48.6733006 -20.52658081 50.63052368 C-13.10963245 51.71514633 -5.59839542 51.44452075 1.875 51.3125 C3.58983275 51.30096379 5.3046783 51.29119208 7.01953125 51.28320312 C8.65626371 51.26981086 10.29298459 51.25489684 11.9296875 51.23828125 C12.68377899 51.23089432 13.43787048 51.22350739 14.21481323 51.21589661 C17.60397705 51.15396401 20.75841741 51.05142419 24 50 C16.23184561 42.88228916 9.32243269 42.21318514 -0.85400391 42.26391602 C-8.26236008 42.26853058 -15.74575872 41.71186773 -21.625 36.8125 C-22.07875 36.214375 -22.5325 35.61625 -23 35 C-22.4375 32.6875 -22.4375 32.6875 -21 30 C-13.07378986 25.89011326 -6.13930756 25.76045484 2.625 25.6875 C3.76324219 25.65849609 4.90148437 25.62949219 6.07421875 25.59960938 C13.4488163 25.54457506 19.48187827 26.38982255 26 30 C26.99 30.99 26.99 30.99 28 32 C27.64700993 35.44165321 26.95418308 37.06872538 25 40 C26.09501831 40.24907104 26.09501831 40.24907104 27.2121582 40.50317383 C30.57949161 41.27054575 33.94599486 42.04150288 37.3125 42.8125 C38.46041016 43.07353516 39.60832031 43.33457031 40.79101562 43.60351562 C47.09835429 45.05080863 53.35038327 46.59364413 59.56835938 48.38867188 C63.35801197 49.34141184 67.10978917 49.68113026 71 50 C68.22557431 52.27160053 65.88011028 53.55433843 62.4375 54.53515625 C61.56399902 54.78628174 60.69049805 55.03740723 59.79052734 55.29614258 C58.40921631 55.6754895 58.40921631 55.6754895 57 56.0625 C56.05463379 56.32635498 55.10926758 56.59020996 54.13525391 56.86206055 C47.46307093 58.68720993 40.86963645 60.15174087 34 61 C33.26257568 61.09144287 32.52515137 61.18288574 31.76538086 61.27709961 C22.26318856 62.28337578 12.73211953 62.24270609 3.1875 62.25 C1.81780563 62.25151062 1.81780563 62.25151062 0.42044067 62.25305176 C-13.25683703 62.24284763 -26.56459733 61.78491259 -40 59 C-40.71752441 58.86078125 -41.43504883 58.7215625 -42.17431641 58.578125 C-55.18581825 55.99673864 -71.23832271 51.61796486 -80 41 C-82.03020681 37.48774223 -82.48994929 35.08291076 -82 31 C-76.7184313 20.8593881 -67.41741677 16.60592757 -57 13 C-38.28539671 7.22820646 -19.50458708 5.47126119 0 6 C0 4.02 0 2.04 0 0 Z " fill="#D05106" transform="translate(242,380)"/>
<path d="M0 0 C0 34.32 0 68.64 0 104 C-0.99 104.495 -0.99 104.495 -2 105 C-22 79.0942928 -22 79.0942928 -22 75 C-22.66 75 -23.32 75 -24 75 C-24 74.01 -24 73.02 -24 72 C-24.66 72 -25.32 72 -26 72 C-34.51580129 55.11631456 -43.22854128 36.7232698 -38.04296875 17.44140625 C-35.05563894 9.69331592 -31.09950197 5.04009478 -24.0390625 0.796875 C-16.1851127 -2.27248469 -8.25438516 -0.55029234 0 0 Z " fill="#1CA8B5" transform="translate(242,147)"/>
<path d="M0 0 C0 2.97 0 5.94 0 9 C-1.32515625 9.24234375 -2.6503125 9.4846875 -4.015625 9.734375 C-5.76057357 10.07210698 -7.50535691 10.41069351 -9.25 10.75 C-10.12269531 10.90726562 -10.99539062 11.06453125 -11.89453125 11.2265625 C-16.71676385 12.18364683 -19.90761547 12.86523866 -23 17 C-21.63016497 20.16115776 -21.0109362 20.9927092 -18 23 C-12.5455919 24.72915051 -7.73152003 25.15991935 -2.0300293 25.17553711 C7.99687598 25.21773571 15.49470918 25.66412884 23 33 C23.33 33.66 23.66 34.32 24 35 C19.6189937 36.06823653 15.31700786 36.19404453 10.83203125 36.23828125 C10.03834641 36.246353 9.24466156 36.25442474 8.42692566 36.26274109 C6.74337925 36.27654664 5.05980527 36.28728452 3.3762207 36.29516602 C1.69026211 36.30656522 0.00433603 36.32681989 -1.68139648 36.35668945 C-19.0410392 36.66346959 -36.13866937 34.72276437 -51 25 C-53.27991211 22.49402066 -53.93376697 21.44470751 -54.4375 18.0625 C-53.88753091 14.21271636 -52.62233288 12.83938408 -50 10 C-35.05798636 0.0994902 -17.29397986 0 0 0 Z " fill="#FDFAF6" transform="translate(243,396)"/>
<path d="M0 0 C1.13824219 -0.02900391 2.27648437 -0.05800781 3.44921875 -0.08789062 C10.8238163 -0.14292494 16.85687827 0.70232255 23.375 4.3125 C24.035 4.9725 24.695 5.6325 25.375 6.3125 C25.02200993 9.75415321 24.32918308 11.38122538 22.375 14.3125 C23.10501221 14.47854736 23.83502441 14.64459473 24.5871582 14.81567383 C27.95449161 15.58304575 31.32099486 16.35400288 34.6875 17.125 C35.83541016 17.38603516 36.98332031 17.64707031 38.16601562 17.91601562 C44.47335429 19.36330863 50.72538327 20.90614413 56.94335938 22.70117188 C60.73301197 23.65391184 64.48478917 23.99363026 68.375 24.3125 C65.60414294 26.57762831 63.2414142 27.87800506 59.8125 28.8828125 C58.93811279 29.1391748 58.06372559 29.39553711 57.1628418 29.65966797 C56.242854 29.91635254 55.32286621 30.17303711 54.375 30.4375 C53.43760986 30.70320801 52.50021973 30.96891602 51.53442383 31.24267578 C44.78843639 33.0868858 38.3956981 34.28342879 31.375 34.3125 C32.365 33.6525 33.355 32.9925 34.375 32.3125 C32.065 30.9925 29.755 29.6725 27.375 28.3125 C27.375 27.6525 27.375 26.9925 27.375 26.3125 C26.64539063 26.20808594 25.91578125 26.10367187 25.1640625 25.99609375 C22.12956637 25.2523447 20.29439654 24.16307248 17.75 22.375 C16.99460937 21.85035156 16.23921875 21.32570313 15.4609375 20.78515625 C14.77257812 20.29917969 14.08421875 19.81320312 13.375 19.3125 C10.18294244 17.18446163 9.29401993 17.05765639 5.62109375 17.00390625 C4.68330078 16.97876953 3.74550781 16.95363281 2.77929688 16.92773438 C0.82883382 16.89306518 -1.12169162 16.86171765 -3.07226562 16.83398438 C-10.54365916 16.62545671 -18.3220415 16.06496542 -24.25 11.125 C-24.70375 10.526875 -25.1575 9.92875 -25.625 9.3125 C-25.0625 7 -25.0625 7 -23.625 4.3125 C-15.69878986 0.20261326 -8.76430756 0.07295484 0 0 Z " fill="#D1550D" transform="translate(244.625,405.6875)"/>
<path d="M0 0 C2.86724686 0.57344937 3.8614515 0.8614515 6 3 C6.28344282 5.67679056 6.44518442 8.26432046 6.52734375 10.94921875 C6.56079391 11.77425903 6.59424408 12.59929932 6.62870789 13.44934082 C6.7012057 15.24914564 6.76963354 17.04911784 6.83453369 18.84921265 C7.01021988 23.69203833 7.21783033 28.53346794 7.42578125 33.375 C7.4689447 34.39047409 7.51210815 35.40594818 7.55657959 36.45219421 C8.07880396 48.3742469 8.84416979 60.28004022 9.625 72.1875 C9.69339081 73.23561859 9.76178162 74.28373718 9.83224487 75.36361694 C10.21636086 81.24277215 10.6072209 87.12140611 11 93 C5.06 92.67 -0.88 92.34 -7 92 C-7.1611402 79.14381443 -6.54178377 66.50215999 -5.5625 53.6875 C-5.2897057 50.04580962 -5.02065152 46.40385699 -4.75390625 42.76171875 C-4.68877838 41.8774118 -4.62365051 40.99310486 -4.55654907 40.08200073 C-3.88232657 30.72901801 -3.42477332 21.36716965 -3 12 C-2.34 11.67 -1.68 11.34 -1 11 C-0.5316735 8.41394668 -0.5316735 8.41394668 -0.375 5.4375 C-0.30023438 4.42558594 -0.22546875 3.41367188 -0.1484375 2.37109375 C-0.09945312 1.58863281 -0.05046875 0.80617187 0 0 Z " fill="#097169" transform="translate(243,252)"/>
<path d="M0 0 C18.55541388 -0.65297644 38.21486235 -0.06844508 53.3125 12.4375 C55 15 55 15 55.25 18.4375 C53.4371563 23.60410455 49.85850461 26.5707477 45 29 C39.35646676 29.34508229 34.47846886 28.37371618 29.0625 27 C28.28326172 26.80921875 27.50402344 26.6184375 26.70117188 26.421875 C24.79900752 25.9550862 22.89923991 25.47854864 21 25 C21 22 21 22 23 20 C23.01497448 17.45876898 23.01497448 17.45876898 22 15 C15.80824604 10.70341602 7.29089788 9.95207601 0 9 C0 6.03 0 3.06 0 0 Z " fill="#FDF9F4" transform="translate(246,396)"/>
<path d="M0 0 C2.97922593 -0.02683987 5.95821295 -0.04676037 8.9375 -0.0625 C10.21270508 -0.07506836 10.21270508 -0.07506836 11.51367188 -0.08789062 C12.32255859 -0.09111328 13.13144531 -0.09433594 13.96484375 -0.09765625 C14.7137085 -0.10289307 15.46257324 -0.10812988 16.23413086 -0.11352539 C18 0 18 0 19 1 C19.59996696 4.70645309 19.89605435 8.45065072 20.25 12.1875 C20.36601562 13.22970703 20.48203125 14.27191406 20.6015625 15.34570312 C21.14198678 21.08953687 21.45054768 25.06500617 18 30 C15.4375 32.875 15.4375 32.875 13 35 C12.34 35 11.68 35 11 35 C11 40.28 11 45.56 11 51 C12.98 51 14.96 51 17 51 C17 51.33 17 51.66 17 52 C15.02 52 13.04 52 11 52 C11 54.97 11 57.94 11 61 C12.32 61.33 13.64 61.66 15 62 C11.7 62 8.4 62 5 62 C6.485 61.505 6.485 61.505 8 61 C8 58.03 8 55.06 8 52 C6.02 52.495 6.02 52.495 4 53 C2.63199181 53.07708723 1.26076408 53.10803609 -0.109375 53.09765625 C-0.86347656 53.09443359 -1.61757812 53.09121094 -2.39453125 53.08789062 C-3.17183594 53.07951172 -3.94914063 53.07113281 -4.75 53.0625 C-5.54277344 53.05798828 -6.33554688 53.05347656 -7.15234375 53.04882812 C-9.10159508 53.03708565 -11.05080738 53.01915146 -13 53 C-13 52.67 -13 52.34 -13 52 C-2.605 51.505 -2.605 51.505 8 51 C7.938125 48.628125 7.87625 46.25625 7.8125 43.8125 C7.80581299 43.07491455 7.79912598 42.3373291 7.79223633 41.57739258 C7.61432199 37.8024479 7.15557824 36.17615057 4.63671875 33.32421875 C3.76660156 32.55722656 2.89648438 31.79023438 2 31 C-0.63208381 27.3780238 -1.37369606 25.02174289 -1.25 20.5625 C-1.22421875 19.52738281 -1.1984375 18.49226563 -1.171875 17.42578125 C-0.8800379 11.60893726 -0.48081779 5.80415763 0 0 Z " fill="#F9BB06" transform="translate(235,344)"/>
<path d="M0 0 C2 1 2 1 5 3 C6.62963507 3.45684988 8.27949902 3.84380702 9.9375 4.18359375 C11.40509766 4.49200195 11.40509766 4.49200195 12.90234375 4.80664062 C13.92457031 5.01482422 14.94679688 5.22300781 16 5.4375 C22.91227728 6.86220214 29.7284615 8.39936578 36.5090332 10.36669922 C40.32051562 11.3357265 44.08479881 11.67908187 48 12 C45.22914294 14.26512831 42.8664142 15.56550506 39.4375 16.5703125 C38.56311279 16.8266748 37.68872559 17.08303711 36.7878418 17.34716797 C35.867854 17.60385254 34.94786621 17.86053711 34 18.125 C33.06260986 18.39070801 32.12521973 18.65641602 31.15942383 18.93017578 C24.41343639 20.7743858 18.0206981 21.97092879 11 22 C11.99 21.34 12.98 20.68 14 20 C11.69 18.68 9.38 17.36 7 16 C7 15.34 7 14.68 7 14 C6.26523437 13.89429688 5.53046875 13.78859375 4.7734375 13.6796875 C1.78839111 12.94814092 0.09735641 11.91902035 -2.375 10.125 C-6.14356532 7.49899804 -9.717971 5.639926 -14 4 C-14 3.67 -14 3.34 -14 3 C-13.15695313 2.86722656 -12.31390625 2.73445313 -11.4453125 2.59765625 C-10.34960938 2.42105469 -9.25390625 2.24445313 -8.125 2.0625 C-6.48917969 1.80146484 -6.48917969 1.80146484 -4.8203125 1.53515625 C-2.06178454 1.14448841 -2.06178454 1.14448841 0 0 Z " fill="#774420" transform="translate(265,418)"/>
<path d="M0 0 C0.33 0 0.66 0 1 0 C1 30.36 1 60.72 1 92 C-1.64 92 -4.28 92 -7 92 C-7.2185418 79.15882146 -6.54071163 66.48813025 -5.5625 53.6875 C-5.2897057 50.04580962 -5.02065152 46.40385699 -4.75390625 42.76171875 C-4.68877838 41.8774118 -4.62365051 40.99310486 -4.55654907 40.08200073 C-3.88232657 30.72901801 -3.42477332 21.36716965 -3 12 C-2.34 11.67 -1.68 11.34 -1 11 C-0.5316735 8.41394668 -0.5316735 8.41394668 -0.375 5.4375 C-0.30023438 4.42558594 -0.22546875 3.41367188 -0.1484375 2.37109375 C-0.09945312 1.58863281 -0.05046875 0.80617187 0 0 Z " fill="#2599A3" transform="translate(243,252)"/>
<path d="M0 0 C1.65 0 3.3 0 5 0 C6.29146455 2.58292911 6.12705706 4.44386243 6.12939453 7.3359375 C6.13254669 8.45049316 6.13569885 9.56504883 6.13894653 10.71337891 C6.1369223 11.92171387 6.13489807 13.13004883 6.1328125 14.375 C6.13376923 15.61040527 6.13472595 16.84581055 6.13571167 18.11865234 C6.13656804 21.40586084 6.13253344 24.69302236 6.12695312 27.98022461 C6.12500203 29.99789941 6.12694592 32.01553072 6.13037109 34.03320312 C6.13652992 37.89715613 6.13580484 41.76104435 6.1328125 45.625 C6.13483673 46.83333496 6.13686096 48.04166992 6.13894653 49.28662109 C6.13579437 50.40117676 6.13264221 51.51573242 6.12939453 52.6640625 C6.12820114 54.14060303 6.12820114 54.14060303 6.12698364 55.64697266 C6 58 6 58 5 60 C3.35 60 1.7 60 0 60 C0 40.2 0 20.4 0 0 Z " fill="#9D9EA0" transform="translate(240,58)"/>
<path d="M0 0 C2.97922593 -0.02683987 5.95821295 -0.04676037 8.9375 -0.0625 C9.78763672 -0.07087891 10.63777344 -0.07925781 11.51367188 -0.08789062 C12.32255859 -0.09111328 13.13144531 -0.09433594 13.96484375 -0.09765625 C14.7137085 -0.10289307 15.46257324 -0.10812988 16.23413086 -0.11352539 C18 0 18 0 19 1 C19.59996696 4.70645309 19.89605435 8.45065072 20.25 12.1875 C20.42402344 13.75081055 20.42402344 13.75081055 20.6015625 15.34570312 C21.13960802 21.06425448 21.49410185 25.11451084 18 30 C16.13366858 31.95260951 14.16913286 33.36109962 12 35 C12 34.34 12 33.68 12 33 C11.34 33 10.68 33 10 33 C10 22.77 10 12.54 10 2 C7.36 2.33 4.72 2.66 2 3 C1.67 4.98 1.34 6.96 1 9 C0.67 9 0.34 9 0 9 C0 6.03 0 3.06 0 0 Z " fill="#DE9D09" transform="translate(235,344)"/>
<path d="M0 0 C2.475 0.495 2.475 0.495 5 1 C5 20.47 5 39.94 5 60 C2.525 60.495 2.525 60.495 0 61 C0 40.87 0 20.74 0 0 Z " fill="#A7ABAC" transform="translate(257,74)"/>
<path d="M0 0 C1.67542976 0.28604898 3.34385343 0.61781233 5 1 C5.0252689 7.81761894 5.04283244 14.63522589 5.05493164 21.45288086 C5.05997333 23.77417451 5.06680651 26.09546497 5.07543945 28.41674805 C5.08751225 31.74528795 5.09322979 35.07378602 5.09765625 38.40234375 C5.10281754 39.44712387 5.10797882 40.49190399 5.11329651 41.56834412 C5.11337204 42.52926468 5.11344757 43.49018524 5.11352539 44.48022461 C5.115746 45.33071884 5.11796661 46.18121307 5.12025452 47.05747986 C5 49 5 49 4 50 C2.33382885 50.04063832 0.66611905 50.042721 -1 50 C-1.02526838 43.03996553 -1.04283222 36.0799428 -1.05493164 29.11987305 C-1.05997341 26.75007688 -1.06680665 24.38028385 -1.07543945 22.01049805 C-1.0875119 18.61245961 -1.09322971 15.21446215 -1.09765625 11.81640625 C-1.10281754 10.74975235 -1.10797882 9.68309845 -1.11329651 8.5841217 C-1.11337204 7.60318039 -1.11344757 6.62223907 -1.11352539 5.61157227 C-1.115746 4.74331314 -1.11796661 3.87505402 -1.12025452 2.98048401 C-1 1 -1 1 0 0 Z " fill="#9CA0A1" transform="translate(223,80)"/>
<path d="M0 0 C0.33 0 0.66 0 1 0 C1 2.31 1 4.62 1 7 C1.56170898 6.98428955 2.12341797 6.9685791 2.70214844 6.95239258 C19.26208384 6.55434951 34.95185081 7.79604292 51 12 C51 12.33 51 12.66 51 13 C45.72 12.67 40.44 12.34 35 12 C35 11.67 35 11.34 35 11 C27.41 10.67 19.82 10.34 12 10 C12 10.99 12 11.98 12 13 C12.99 13 13.98 13 15 13 C15.33 13.66 15.66 14.32 16 15 C18.86434404 15.63912692 21.66879881 16.16944544 24.5625 16.625 C25.36880859 16.7590625 26.17511719 16.893125 27.00585938 17.03125 C29.0026124 17.36207299 31.0011567 17.68205038 33 18 C33 18.66 33 19.32 33 20 C32.37738281 19.87882812 31.75476563 19.75765625 31.11328125 19.6328125 C20.81042521 17.76479118 10.42267248 16.91735132 0 16 C0 10.72 0 5.44 0 0 Z " fill="#CE5910" transform="translate(246,379)"/>
<path d="M0 0 C0.66 0.33 1.32 0.66 2 1 C3.86392091 9.75611925 3.11715388 19.26241786 3.0625 28.1875 C3.05747088 29.63085781 3.05291049 31.07421733 3.04882812 32.51757812 C3.0379438 36.01175505 3.0207585 39.50586612 3 43 C0.36 43 -2.28 43 -5 43 C-5 37.39 -5 31.78 -5 26 C-4.01 26 -3.02 26 -2 26 C-2.01160156 25.27296875 -2.02320313 24.5459375 -2.03515625 23.796875 C-2.20906801 4.41813602 -2.20906801 4.41813602 0 0 Z " fill="#1EA7B2" transform="translate(241,301)"/>
<path d="M0 0 C0.33 0 0.66 0 1 0 C1 4.62 1 9.24 1 14 C-3.54126314 14.50391823 -8.08294844 15.00328303 -12.625 15.5 C-14.55279297 15.71462891 -14.55279297 15.71462891 -16.51953125 15.93359375 C-17.76347656 16.06894531 -19.00742188 16.20429688 -20.2890625 16.34375 C-21.43068848 16.46943359 -22.57231445 16.59511719 -23.74853516 16.72460938 C-26.85137634 16.98741196 -29.88794051 17.0494632 -33 17 C-33.33 15.68 -33.66 14.36 -34 13 C-30.13940931 9.00381005 -27.18455494 8.5153022 -21.890625 8.34179688 C-21.01921875 8.33212891 -20.1478125 8.32246094 -19.25 8.3125 C-17.52597162 8.26965893 -15.8020085 8.22410223 -14.078125 8.17578125 C-12.82032227 8.14411865 -12.82032227 8.14411865 -11.53710938 8.11181641 C-7.66227901 7.94104347 -3.84799724 7.47905229 0 7 C0 4.69 0 2.38 0 0 Z " fill="#D55000" transform="translate(242,380)"/>
<path d="M0 0 C2 1 2 1 5 3 C7.11712534 3.63312244 7.11712534 3.63312244 9.44921875 4.0703125 C10.29677734 4.24433594 11.14433594 4.41835938 12.01757812 4.59765625 C12.89865234 4.77167969 13.77972656 4.94570313 14.6875 5.125 C15.58017578 5.30675781 16.47285156 5.48851562 17.39257812 5.67578125 C19.59392657 6.12311409 21.79632949 6.5642764 24 7 C20.14511815 9.0276508 16.20177406 10.16910885 12 11.25 C11.2884375 11.44851563 10.576875 11.64703125 9.84375 11.8515625 C4.61515884 13.19772963 4.61515884 13.19772963 1.8125 12.296875 C1.214375 11.86890625 0.61625 11.4409375 0 11 C-0.804375 10.525625 -1.60875 10.05125 -2.4375 9.5625 C-4.14583333 8.52083333 -5.85416667 7.47916667 -7.5625 6.4375 C-9.67386195 5.19233783 -11.79266748 4.06278973 -14 3 C-13.15695313 2.86722656 -12.31390625 2.73445313 -11.4453125 2.59765625 C-10.34960938 2.42105469 -9.25390625 2.24445313 -8.125 2.0625 C-6.48917969 1.80146484 -6.48917969 1.80146484 -4.8203125 1.53515625 C-2.06178454 1.14448841 -2.06178454 1.14448841 0 0 Z " fill="#929C9D" transform="translate(265,418)"/>
<path d="M0 0 C2.97 0 5.94 0 9 0 C9 0.66 9 1.32 9 2 C11.97851562 1.90234375 11.97851562 1.90234375 14.95703125 1.8046875 C17 2 17 2 20 4 C22.11280345 4.63292383 22.11280345 4.63292383 24 5 C23.125 9.875 23.125 9.875 22 11 C14.32147144 11.8370723 7.33462046 10.11721003 0 8 C0 5.36 0 2.72 0 0 Z " fill="#D45206" transform="translate(246,407)"/>
<path d="M0 0 C0.66 0 1.32 0 2 0 C2.06058594 0.67546875 2.12117187 1.3509375 2.18359375 2.046875 C2.26738281 2.93890625 2.35117188 3.8309375 2.4375 4.75 C2.55931641 6.07257813 2.55931641 6.07257813 2.68359375 7.421875 C3.0702528 11.95677093 3.0702528 11.95677093 5.62890625 15.484375 C6.26699219 15.90203125 6.90507812 16.3196875 7.5625 16.75 C8.20316406 17.17796875 8.84382813 17.6059375 9.50390625 18.046875 C9.99761719 18.36140625 10.49132812 18.6759375 11 19 C11.66 18.67 12.32 18.34 13 18 C12.67 23.94 12.34 29.88 12 36 C13.98 36 15.96 36 18 36 C18 36.33 18 36.66 18 37 C16.02 37 14.04 37 12 37 C12 39.97 12 42.94 12 46 C13.32 46.33 14.64 46.66 16 47 C12.7 47 9.4 47 6 47 C7.485 46.505 7.485 46.505 9 46 C9 43.03 9 40.06 9 37 C7.02 37.495 7.02 37.495 5 38 C3.63199181 38.07708723 2.26076408 38.10803609 0.890625 38.09765625 C0.13652344 38.09443359 -0.61757812 38.09121094 -1.39453125 38.08789062 C-2.17183594 38.07951172 -2.94914063 38.07113281 -3.75 38.0625 C-4.54277344 38.05798828 -5.33554688 38.05347656 -6.15234375 38.04882812 C-8.10159508 38.03708565 -10.05080738 38.01915146 -12 38 C-12 37.67 -12 37.34 -12 37 C-1.605 36.505 -1.605 36.505 9 36 C8.938125 33.628125 8.87625 31.25625 8.8125 28.8125 C8.80581299 28.07491455 8.79912598 27.3373291 8.79223633 26.57739258 C8.61012149 22.71332263 8.09387021 21.10996655 5.5625 18.14453125 C4.716875 17.43683594 3.87125 16.72914063 3 16 C-1.06254318 11.23701834 -0.28032195 5.92829012 0 0 Z " fill="#F9BA18" transform="translate(234,359)"/>
<path d="M0 0 C0.99 0.33 1.98 0.66 3 1 C3.14285714 9.57142857 3.14285714 9.57142857 2 13 C3.32 13.66 4.64 14.32 6 15 C6 16.32 6 17.64 6 19 C9.63 19 13.26 19 17 19 C17 18.01 17 17.02 17 16 C18.98 16 20.96 16 23 16 C20.36260286 19.07696333 17.85417594 20.71527469 14 22 C5.87804063 21.53073124 -2.16754194 19.08310055 -10 17 C-7.45670822 14.96536658 -4.9718492 12.98144606 -2.25 11.1875 C0.75626319 8.26474412 0.84772837 6.11133397 1 2 C0.67 1.34 0.34 0.68 0 0 Z " fill="#CD4F05" transform="translate(299,409)"/>
<path d="M0 0 C0.83402344 0.20496094 1.66804688 0.40992188 2.52734375 0.62109375 C9.03033872 2.17793905 15.33643284 3.43529092 22 4 C22 4.33 22 4.66 22 5 C18.7 5 15.4 5 12 5 C12 5.66 12 6.32 12 7 C6.17745757 8.96818336 1.16618181 10.40214229 -5 10 C-5 9.34 -5 8.68 -5 8 C-3.68 8 -2.36 8 -1 8 C-1.20625 7.4225 -1.4125 6.845 -1.625 6.25 C-2.08955171 3.46268972 -1.33184618 2.41969001 0 0 Z " fill="#7D4017" transform="translate(291,426)"/>
<path d="M0 0 C1.10303467 0.16371094 2.20606934 0.32742188 3.3425293 0.49609375 C8.4101951 1.12646854 13.41972549 1.10782892 18.51953125 1.0625 C19.49991867 1.05871338 20.48030609 1.05492676 21.49040222 1.05102539 C24.59781455 1.0388864 27.70513057 1.02024502 30.8125 1 C34.92317442 0.97344485 39.0338036 0.95345501 43.14453125 0.9375 C44.08827103 0.92920166 45.0320108 0.92090332 46.00434875 0.91235352 C46.87923447 0.90905029 47.75412018 0.90574707 48.65551758 0.90234375 C49.42414627 0.89710693 50.19277496 0.89187012 50.98469543 0.88647461 C53 1 53 1 56 2 C56 2.66 56 3.32 56 4 C56.763125 4.268125 57.52625 4.53625 58.3125 4.8125 C60.87380884 5.94424112 62.19692938 6.91223401 64 9 C62.68 9 61.36 9 60 9 C59.67 9.66 59.34 10.32 59 11 C57.02 10.67 55.04 10.34 53 10 C53 9.67 53 9.34 53 9 C54.98 9 56.96 9 59 9 C59 8.34 59 7.68 59 7 C58.34 7 57.68 7 57 7 C57 6.34 57 5.68 57 5 C56.34 5 55.68 5 55 5 C55 4.34 55 3.68 55 3 C54.05492584 3.00999275 54.05492584 3.00999275 53.09075928 3.02018738 C46.53728332 3.08652244 39.98390263 3.13179307 33.43017578 3.16479492 C30.98384732 3.1798877 28.53754593 3.20036402 26.09130859 3.22631836 C22.57642943 3.26267918 19.06190782 3.27972161 15.546875 3.29296875 C14.4519574 3.30845261 13.35703979 3.32393646 12.22894287 3.33988953 C11.20818665 3.34011612 10.18743042 3.34034271 9.13574219 3.34057617 C8.23861511 3.34723801 7.34148804 3.35389984 6.41717529 3.36076355 C3.54024657 2.93138177 2.15815541 1.90069325 0 0 Z " fill="#CA662D" transform="translate(216,430)"/>
<path d="M0 0 C7.5554199 -0.4146267 14.7931291 0.24765445 22.25 1.375 C23.08885742 1.50108643 23.92771484 1.62717285 24.79199219 1.75708008 C29.9485303 2.57290426 34.95356402 3.66281074 40 5 C40 5.33 40 5.66 40 6 C34.72 5.67 29.44 5.34 24 5 C24 4.67 24 4.34 24 4 C16.08 3.67 8.16 3.34 0 3 C0 2.01 0 1.02 0 0 Z " fill="#A6521B" transform="translate(257,386)"/>
<path d="M0 0 C0 0.33 0 0.66 0 1 C-6.32602425 2.62960366 -12.35597455 3.35161998 -18.875 3.5625 C-20.62767407 3.63371658 -22.38028037 3.70662205 -24.1328125 3.78125 C-24.9671582 3.81605469 -25.80150391 3.85085938 -26.66113281 3.88671875 C-31.12134329 4.10274565 -35.56118338 4.52150371 -40 5 C-40 4.34 -40 3.68 -40 3 C-26.53698177 0.4151005 -13.69794731 -0.36800455 0 0 Z " fill="#AA4D17" transform="translate(242,386)"/>
<path d="M0 0 C10.06267348 1.56144933 20.43052226 6.08502598 28 13 C28 13.66 28 14.32 28 15 C27.01 15 26.02 15 25 15 C25 14.34 25 13.68 25 13 C22.69 12.34 20.38 11.68 18 11 C18 10.34 18 9.68 18 9 C15.69 8.34 13.38 7.68 11 7 C11 6.34 11 5.68 11 5 C9.9171875 4.814375 9.9171875 4.814375 8.8125 4.625 C6.01799416 4.0039987 3.58740955 3.22183229 1 2 C0.67 1.34 0.34 0.68 0 0 Z " fill="#AB5117" transform="translate(298,392)"/>
<path d="M0 0 C0 0.33 0 0.66 0 1 C-1.98 1 -3.96 1 -6 1 C-6 3.97 -6 6.94 -6 10 C-4.68 10.33 -3.36 10.66 -2 11 C-5.3 11 -8.6 11 -12 11 C-11.01 10.67 -10.02 10.34 -9 10 C-9 7.03 -9 4.06 -9 1 C-10.32 1.33 -11.64 1.66 -13 2 C-14.36800819 2.07708723 -15.73923592 2.10803609 -17.109375 2.09765625 C-17.86347656 2.09443359 -18.61757812 2.09121094 -19.39453125 2.08789062 C-20.17183594 2.07951172 -20.94914063 2.07113281 -21.75 2.0625 C-22.54277344 2.05798828 -23.33554688 2.05347656 -24.15234375 2.04882812 C-26.10159508 2.03708565 -28.05080738 2.01915146 -30 2 C-30 1.67 -30 1.34 -30 1 C-19.96557967 0.12198822 -10.06394247 -0.1176305 0 0 Z " fill="#F4C585" transform="translate(252,395)"/>
<path d="M0 0 C1.32 0.33 2.64 0.66 4 1 C4 20.47 4 39.94 4 60 C3.67 60 3.34 60 3 60 C2.99191315 59.32205887 2.98382629 58.64411774 2.97549438 57.94563293 C2.88943038 50.88893896 2.78992552 43.83252528 2.68261719 36.77612305 C2.64433655 34.14270739 2.60948211 31.50923962 2.578125 28.87573242 C2.5324553 25.09014254 2.47446274 21.30491122 2.4140625 17.51953125 C2.40251129 16.34227982 2.39096008 15.16502838 2.37905884 13.95210266 C2.35918915 12.85133896 2.33931946 11.75057526 2.31884766 10.61645508 C2.30552399 9.65048904 2.29220032 8.68452301 2.2784729 7.68928528 C1.98084836 4.81504766 1.19423654 2.61856302 0 0 Z " fill="#8A8E8F" transform="translate(258,74)"/>
<path d="M0 0 C2.31 0 4.62 0 7 0 C6 2 6 2 4.06982422 2.77783203 C1.34069729 3.56991993 -1.38858849 4.3583646 -4.125 5.125 C-5.0634375 5.40214844 -6.001875 5.67929687 -6.96875 5.96484375 C-12.14762908 7.43727015 -16.61666651 8.34298247 -22 8 C-21.67 7.01 -21.34 6.02 -21 5 C-19.89591797 4.92652344 -19.89591797 4.92652344 -18.76953125 4.8515625 C-17.79371094 4.77679688 -16.81789063 4.70203125 -15.8125 4.625 C-14.84957031 4.55539062 -13.88664062 4.48578125 -12.89453125 4.4140625 C-9.97706716 3.99671946 -7.70462419 3.13301824 -5 2 C-2.1875 1.875 -2.1875 1.875 0 2 C0 1.34 0 0.68 0 0 Z " fill="#643C24" transform="translate(303,431)"/>
<path d="M0 0 C0.66 0.33 1.32 0.66 2 1 C0.625 3.5 0.625 3.5 -1 6 C-1.66 6 -2.32 6 -3 6 C-3.020625 7.258125 -3.04125 8.51625 -3.0625 9.8125 C-3.07410156 10.52019531 -3.08570313 11.22789062 -3.09765625 11.95703125 C-3.08263217 14.20305461 -3.08263217 14.20305461 -2 17 C-1.34 16.67 -0.68 16.34 0 16 C0.20625 16.763125 0.4125 17.52625 0.625 18.3125 C2.42070704 21.82229103 4.43136312 22.52599781 8 24 C8 24.66 8 25.32 8 26 C2.64287521 24.37662885 -2.32481233 20.85279485 -5.18359375 15.984375 C-6.36685889 13.10830471 -6.37058163 11.08818022 -6 8 C-4.2344231 4.9396667 -2.49412245 2.49412245 0 0 Z " fill="#A55621" transform="translate(166,403)"/>
<path d="M0 0 C0.33 0.66 0.66 1.32 1 2 C1.66 2 2.32 2 3 2 C3 2.99 3 3.98 3 5 C2.34 5 1.68 5 1 5 C1 5.99 1 6.98 1 8 C-3.47238653 6.58192622 -7.71146306 4.88695626 -12 3 C-12 2.67 -12 2.34 -12 2 C-8.04 1.34 -4.08 0.68 0 0 Z " fill="#95938A" transform="translate(263,419)"/>
<path d="M0 0 C0.33 0 0.66 0 1 0 C1.42773288 11.25175092 1.73379242 21.5130949 -3 32 C-3.66 32.66 -4.32 33.32 -5 34 C-4.67 30.7 -4.34 27.4 -4 24 C-3.34 24 -2.68 24 -2 24 C-2.020625 22.865625 -2.04125 21.73125 -2.0625 20.5625 C-2 17 -2 17 -1 16 C-0.76321284 13.30764224 -0.57801975 10.63501844 -0.4375 7.9375 C-0.37272461 6.79958008 -0.37272461 6.79958008 -0.30664062 5.63867188 C-0.20026367 3.75934562 -0.09960066 1.87969756 0 0 Z " fill="#135E54" transform="translate(285,168)"/>
<path d="M0 0 C2.10353495 -0.0810206 4.20795952 -0.13919907 6.3125 -0.1875 C7.48425781 -0.22230469 8.65601563 -0.25710938 9.86328125 -0.29296875 C13.38386128 0.03585255 13.80056775 0.45065807 16 3 C18.2603044 3.99373439 18.2603044 3.99373439 20.6875 4.6875 C21.49574219 4.93886719 22.30398437 5.19023437 23.13671875 5.44921875 C23.75160156 5.63097656 24.36648437 5.81273437 25 6 C20.88945335 7.67624889 17.14961515 6.28658748 13.0625 5.1875 C12.35931641 5.00896484 11.65613281 4.83042969 10.93164062 4.64648438 C7.16573528 3.66883135 3.58004255 2.54831586 0 1 C0 0.67 0 0.34 0 0 Z " fill="#A14A16" transform="translate(181,432)"/>
<path d="M0 0 C0.99 0.99 1.98 1.98 3 3 C-1.62182906 4.17064733 -6.0693672 4.12797691 -10.80078125 4.09765625 C-11.63715622 4.0962413 -12.47353119 4.09482635 -13.33525085 4.09336853 C-15.994371 4.08779184 -18.6534055 4.07524365 -21.3125 4.0625 C-23.12044149 4.05748199 -24.9283843 4.05291961 -26.73632812 4.04882812 C-31.15758484 4.03783004 -35.57877793 4.0205815 -40 4 C-40 3.67 -40 3.34 -40 3 C-38.93040039 2.98018066 -37.86080078 2.96036133 -36.75878906 2.93994141 C-32.78524488 2.8637902 -28.81206234 2.77508758 -24.83886719 2.68261719 C-23.12018989 2.64436673 -21.40143362 2.60950697 -19.68261719 2.578125 C-17.2099996 2.53238872 -14.73792387 2.47440916 -12.265625 2.4140625 C-11.49881409 2.40251129 -10.73200317 2.39096008 -9.94195557 2.37905884 C-6.16811648 2.27497731 -3.20636084 2.10555954 0 0 Z " fill="#F8DDC9" transform="translate(264,428)"/>
<path d="M0 0 C0.99 0.33 1.98 0.66 3 1 C3.456 9.968 3.456 9.968 0 14 C-5.0055 17.195 -5.0055 17.195 -8.19140625 16.5703125 C-8.78824219 16.38210938 -9.38507813 16.19390625 -10 16 C-9.37351562 15.60167969 -8.74703125 15.20335937 -8.1015625 14.79296875 C-7.28429687 14.26316406 -6.46703125 13.73335938 -5.625 13.1875 C-4.40683594 12.40439453 -4.40683594 12.40439453 -3.1640625 11.60546875 C-0.76649759 10.01562803 -0.76649759 10.01562803 1 7 C1.20497101 4.19872957 1.26272884 2.52545768 0 0 Z " fill="#C46025" transform="translate(299,409)"/>
<path d="M0 0 C8.92981438 -0.46321804 15.97331823 -0.1428035 24 4 C23.01 4.66 22.02 5.32 21 6 C21 5.34 21 4.68 21 4 C17.7 3.67 14.4 3.34 11 3 C11 2.34 11 1.68 11 1 C8.03 1 5.06 1 2 1 C1.67 2.65 1.34 4.3 1 6 C0.67 6 0.34 6 0 6 C0 4.02 0 2.04 0 0 Z " fill="#CF6824" transform="translate(244,406)"/>
<path d="M0 0 C-8.93382353 5.12867647 -8.93382353 5.12867647 -14.625 5.0625 C-15.62789062 5.05347656 -16.63078125 5.04445313 -17.6640625 5.03515625 C-18.43492187 5.02355469 -19.20578125 5.01195312 -20 5 C-16.85418354 2.90278902 -14.1591082 1.94332914 -10.5625 0.8125 C-9.42941406 0.44769531 -8.29632813 0.08289063 -7.12890625 -0.29296875 C-4.1660003 -0.96248932 -2.77995035 -1.07236414 0 0 Z " fill="#A14B1E" transform="translate(200,391)"/>
<path d="M0 0 C0.66 0 1.32 0 2 0 C2.06058594 0.67546875 2.12117187 1.3509375 2.18359375 2.046875 C2.26738281 2.93890625 2.35117188 3.8309375 2.4375 4.75 C2.55931641 6.07257813 2.55931641 6.07257813 2.68359375 7.421875 C3.29851232 12.43232259 4.17963449 14.54934728 8 18 C5.06692685 17.12800528 3.29276934 16.31296033 1.1875 14.0625 C-0.60800078 9.43199798 -0.23208546 4.90817776 0 0 Z " fill="#C09B1B" transform="translate(234,359)"/>
<path d="M0 0 C1.37562854 1.28965176 2.70766393 2.62689293 4 4 C4 4.66 4 5.32 4 6 C4.66 6.33 5.32 6.66 6 7 C-0.0546875 7.9765625 -0.0546875 7.9765625 -2 8 C-2.66 7.34 -3.32 6.68 -4 6 C-4 5.01 -4 4.02 -4 3 C-3.01 2.67 -2.02 2.34 -1 2 C-0.67 1.34 -0.34 0.68 0 0 Z " fill="#939694" transform="translate(269,423)"/>
<path d="M0 0 C5.94 0 11.88 0 18 0 C18 0.33 18 0.66 18 1 C12.72 1.66 7.44 2.32 2 3 C1.67 4.98 1.34 6.96 1 9 C0.67 9 0.34 9 0 9 C0 6.03 0 3.06 0 0 Z " fill="#9E932E" transform="translate(235,344)"/>
<path d="M0 0 C1.98 0 3.96 0 6 0 C3.36260286 3.07696333 0.85417594 4.71527469 -3 6 C-7.07585161 5.65644163 -11.01250577 4.89686359 -15 4 C-11.68929162 2.99890485 -8.69915231 2.89643866 -5.25 2.9375 C-4.26515625 2.94652344 -3.2803125 2.95554687 -2.265625 2.96484375 C-1.14414062 2.98224609 -1.14414062 2.98224609 0 3 C0 2.01 0 1.02 0 0 Z " fill="#AC5412" transform="translate(316,425)"/>
<path d="M0 0 C0.99 0.33 1.98 0.66 3 1 C3 2.98 3 4.96 3 7 C-4.75 6.25 -4.75 6.25 -7 4 C-4.69 4 -2.38 4 0 4 C0 2.68 0 1.36 0 0 Z " fill="#BF500C" transform="translate(181,425)"/>
<path d="M0 0 C1.72926874 0.31193464 3.45841044 0.62457362 5.1875 0.9375 C6.15042969 1.11152344 7.11335937 1.28554688 8.10546875 1.46484375 C10.74239972 1.9523735 13.3719905 2.46671105 16 3 C12.24543433 5.50304378 10.45254066 5.45280074 6 5 C2.5625 3.0625 2.5625 3.0625 0 1 C0 0.67 0 0.34 0 0 Z " fill="#8B3F0E" transform="translate(246,416)"/>
<path d="M0 0 C5.95672771 -0.49639398 9.97822235 0.73584453 15 4 C16.02853724 4.9706241 17.03781074 5.96356774 18 7 C17.67 7.66 17.34 8.32 17 9 C16.29037109 8.51080078 16.29037109 8.51080078 15.56640625 8.01171875 C10.57688259 4.71454814 5.74389135 2.63541351 0 1 C0 0.67 0 0.34 0 0 Z " fill="#CB642B" transform="translate(280,399)"/>
<path d="M0 0 C1.485 0.99 1.485 0.99 3 2 C3.1875 5.625 3.1875 5.625 3 9 C2.01 9.495 2.01 9.495 1 10 C-0.13350534 12.01669827 -0.13350534 12.01669827 -1 14 C-1.027193 12.41676312 -1.04648306 10.83338938 -1.0625 9.25 C-1.07410156 8.36828125 -1.08570313 7.4865625 -1.09765625 6.578125 C-1.00826198 4.2181162 -0.66912821 2.25501476 0 0 Z " fill="#1F7771" transform="translate(246,253)"/>
<path d="M0 0 C0.66 0.33 1.32 0.66 2 1 C2.05447047 2.41623216 2.09300508 3.83308191 2.125 5.25 C2.14820313 6.03890625 2.17140625 6.8278125 2.1953125 7.640625 C1.9828378 10.20731941 1.28654105 11.7916067 0 14 C-0.66 14 -1.32 14 -2 14 C-2.33 12.02 -2.66 10.04 -3 8 C-2.01 8.495 -2.01 8.495 -1 9 C-0.67 6.03 -0.34 3.06 0 0 Z " fill="#A65221" transform="translate(327,408)"/>
<path d="M0 0 C0.66 0.33 1.32 0.66 2 1 C-1.32307692 7.64615385 -1.32307692 7.64615385 -4.75 9.4375 C-5.86375 9.7159375 -5.86375 9.7159375 -7 10 C-5.6062718 5.56541027 -3.39417765 3.12621626 0 0 Z " fill="#309098" transform="translate(214,150)"/>
<path d="M0 0 C0.66 0 1.32 0 2 0 C2 0.66 2 1.32 2 2 C3.1446875 2.4021875 3.1446875 2.4021875 4.3125 2.8125 C6.87380884 3.94424112 8.19692938 4.91223401 10 7 C8.68 7 7.36 7 6 7 C5.67 7.66 5.34 8.32 5 9 C2.03 8.505 2.03 8.505 -1 8 C-1 7.67 -1 7.34 -1 7 C0.98 7 2.96 7 5 7 C5 6.34 5 5.68 5 5 C4.34 5 3.68 5 3 5 C3 4.34 3 3.68 3 3 C2.34 3 1.68 3 1 3 C0.67 2.01 0.34 1.02 0 0 Z " fill="#BF5A1B" transform="translate(270,432)"/>
<path d="M0 0 C3.96 0 7.92 0 12 0 C8.90097677 3.09902323 6.60852615 2.9898579 2.25 3.0625 C1.1775 3.041875 0.105 3.02125 -1 3 C-0.67 2.01 -0.34 1.02 0 0 Z " fill="#6E4B34" transform="translate(282,436)"/>
<path d="M0 0 C2.13093906 1.06546953 3.36587557 2.29159719 5 4 C4.34 5.32 3.68 6.64 3 8 C2.01 8 1.02 8 0 8 C0 8.66 0 9.32 0 10 C-0.66 9.67 -1.32 9.34 -2 9 C-1.67 8.01 -1.34 7.02 -1 6 C-0.34 6 0.32 6 1 6 C1 5.01 1 4.02 1 3 C0.34 3 -0.32 3 -1 3 C-0.67 2.01 -0.34 1.02 0 0 Z " fill="#A6A7A1" transform="translate(265,418)"/>
<path d="M0 0 C0.66 0.33 1.32 0.66 2 1 C0.625 3.5 0.625 3.5 -1 6 C-1.66 6 -2.32 6 -3 6 C-3.12375 6.598125 -3.2475 7.19625 -3.375 7.8125 C-4 10 -4 10 -6 13 C-5.63118644 6.85310727 -4.09949571 4.30972626 0 0 Z " fill="#9A4416" transform="translate(166,403)"/>
<path d="M0 0 C2.97 0 5.94 0 9 0 C9 3.3 9 6.6 9 10 C8.67 10 8.34 10 8 10 C7.67 7.36 7.34 4.72 7 2 C5.02 2 3.04 2 1 2 C0.67 1.34 0.34 0.68 0 0 Z " fill="#D19F1C" transform="translate(245,345)"/>
<path d="M0 0 C0.66 0 1.32 0 2 0 C0.54955729 4.10958767 -1.51110752 7.43258745 -4 11 C-4.99 10.34 -5.98 9.68 -7 9 C-6.01 8.34 -5.02 7.68 -4 7 C-2.90833725 5.06669397 -2.90833725 5.06669397 -2 3 C-1.34 2.01 -0.68 1.02 0 0 Z " fill="#166459" transform="translate(272,215)"/>
<path d="M0 0 C0.825 0.61875 1.65 1.2375 2.5 1.875 C6.1512226 4.33826501 9.71362502 5.1131638 14 6 C14 6.33 14 6.66 14 7 C12.06164034 6.93989582 10.12415509 6.85108283 8.1875 6.75 C7.10855469 6.70359375 6.02960938 6.6571875 4.91796875 6.609375 C2 6 2 6 0.11328125 3.953125 C-0.25410156 3.30859375 -0.62148437 2.6640625 -1 2 C-0.67 1.34 -0.34 0.68 0 0 Z " fill="#FAE2CE" transform="translate(219,415)"/>
<path d="M0 0 C-0.61875 0.7425 -1.2375 1.485 -1.875 2.25 C-3.60437281 4.48801188 -4.86106661 6.43739987 -6 9 C-7.125 2.25 -7.125 2.25 -6 0 C-2.49056604 -1.24528302 -2.49056604 -1.24528302 0 0 Z " fill="#0E645D" transform="translate(253,247)"/>
<path d="M0 0 C3.81287042 1.44626119 5.32707177 3.30194812 7 7 C6.6875 9.3125 6.6875 9.3125 6 11 C5.67 9.68 5.34 8.36 5 7 C4.34 7 3.68 7 3 7 C3 6.01 3 5.02 3 4 C2.34 4 1.68 4 1 4 C0.67 2.68 0.34 1.36 0 0 Z " fill="#348896" transform="translate(215,215)"/>
<path d="M0 0 C6.20970773 -0.33266291 10.28264895 0.54970669 16 3 C12.83454798 4.58272601 10.25581122 3.33086619 6.875 2.5625 C4.95300781 2.13130859 4.95300781 2.13130859 2.9921875 1.69140625 C1.51105469 1.34916016 1.51105469 1.34916016 0 1 C0 0.67 0 0.34 0 0 Z " fill="#F9D7C0" transform="translate(206,427)"/>
<path d="M0 0 C0.33 0 0.66 0 1 0 C1 2.31 1 4.62 1 7 C0.01 7.495 0.01 7.495 -1 8 C-4 4.25 -4 4.25 -4 2 C-2.68 2 -1.36 2 0 2 C0 1.34 0 0.68 0 0 Z " fill="#23959B" transform="translate(241,244)"/>
<path d="M0 0 C0.66 0 1.32 0 2 0 C2 0.66 2 1.32 2 2 C3.98 2 5.96 2 8 2 C8.66 3.32 9.32 4.64 10 6 C9.01 6 8.02 6 7 6 C7 5.34 7 4.68 7 4 C4.69 3.34 2.38 2.68 0 2 C0 1.34 0 0.68 0 0 Z " fill="#C1612A" transform="translate(316,401)"/>
<path d="M0 0 C2.475 0.495 2.475 0.495 5 1 C5.12375 1.78375 5.2475 2.5675 5.375 3.375 C5.79117993 6.14057822 5.79117993 6.14057822 8 8 C7.01 8 6.02 8 5 8 C3.61328125 6.25 3.61328125 6.25 2.3125 4 C1.87550781 3.2575 1.43851563 2.515 0.98828125 1.75 C0.66214844 1.1725 0.33601562 0.595 0 0 Z " fill="#228A90" transform="translate(222,227)"/>
<path d="M0 0 C1.65 0 3.3 0 5 0 C5 1.65 5 3.3 5 5 C3.68 5 2.36 5 1 5 C0.67 3.35 0.34 1.7 0 0 Z " fill="#A1A5A6" transform="translate(240,58)"/>
<path d="M0 0 C2.31 0.33 4.62 0.66 7 1 C6.67 1.99 6.34 2.98 6 4 C4.02 4 2.04 4 0 4 C0 2.68 0 1.36 0 0 Z " fill="#E6A300" transform="translate(245,346)"/>
<path d="M0 0 C0.99 0.33 1.98 0.66 3 1 C2.01 2.485 2.01 2.485 1 4 C0.34 4 -0.32 4 -1 4 C-1.66 5.65 -2.32 7.3 -3 9 C-3.66 7.68 -4.32 6.36 -5 5 C-2 3 -2 3 0 3 C0 2.01 0 1.02 0 0 Z " fill="#156358" transform="translate(257,237)"/>
<path d="M0 0 C1.32 0.33 2.64 0.66 4 1 C4 3.64 4 6.28 4 9 C1.49701566 6.06171403 0.53069061 3.82097239 0 0 Z " fill="#248A8E" transform="translate(209,202)"/>
<path d="M0 0 C1.32 0 2.64 0 4 0 C4 0.66 4 1.32 4 2 C5.65 2.33 7.3 2.66 9 3 C9.33 3.99 9.66 4.98 10 6 C5.25 4.125 5.25 4.125 3 3 C3 2.34 3 1.68 3 1 C2.01 0.67 1.02 0.34 0 0 Z " fill="#8D3F08" transform="translate(269,431)"/>
<path d="M0 0 C2.97 0.33 5.94 0.66 9 1 C5.23312136 2.88343932 3.97041037 3.22057835 0 3 C0 2.01 0 1.02 0 0 Z " fill="#A19F98" transform="translate(280,424)"/>
<path d="M0 0 C0.33 0 0.66 0 1 0 C1 4.29 1 8.58 1 13 C0.01 13 -0.98 13 -2 13 C-2 12.01 -2 11.02 -2 10 C-1.34 10 -0.68 10 0 10 C0 6.7 0 3.4 0 0 Z " fill="#CC7207" transform="translate(242,380)"/>
<path d="M0 0 C1.65 0.33 3.3 0.66 5 1 C4.34 2.65 3.68 4.3 3 6 C1.35 6 -0.3 6 -2 6 C-1.01 5.34 -0.02 4.68 1 4 C0.67 2.68 0.34 1.36 0 0 Z " fill="#7B3C15" transform="translate(278,434)"/>
<path d="M0 0 C-6.4 3.07692308 -6.4 3.07692308 -9.4375 2.6875 C-9.953125 2.460625 -10.46875 2.23375 -11 2 C-3.57142857 -1.57142857 -3.57142857 -1.57142857 0 0 Z " fill="#F8D9C0" transform="translate(209,401)"/>
<path d="M0 0 C1.46015291 0.28241641 2.91809793 0.57626614 4.375 0.875 C5.18710937 1.03742188 5.99921875 1.19984375 6.8359375 1.3671875 C9 2 9 2 11 4 C9.54054712 3.91291331 8.08234132 3.80473093 6.625 3.6875 C5.81289063 3.62949219 5.00078125 3.57148438 4.1640625 3.51171875 C2 3 2 3 0 0 Z " fill="#8F471C" transform="translate(298,392)"/>
<path d="M0 0 C2.13093906 1.06546953 3.36587557 2.29159719 5 4 C2.36 4.33 -0.28 4.66 -3 5 C-2.01 3.35 -1.02 1.7 0 0 Z " fill="#909189" transform="translate(278,424)"/>
<path d="M0 0 C0.66 0 1.32 0 2 0 C2 0.66 2 1.32 2 2 C3.32 2.66 4.64 3.32 6 4 C5.67 5.32 5.34 6.64 5 8 C4.16382818 6.8562364 3.33113541 5.70992861 2.5 4.5625 C2.0359375 3.92441406 1.571875 3.28632813 1.09375 2.62890625 C0 1 0 1 0 0 Z " fill="#25838C" transform="translate(229,236)"/>
</svg>
