<?xml version="1.0" encoding="UTF-8"?>
<svg version="1.1" xmlns="http://www.w3.org/2000/svg" width="592" height="422">
<path d="M0 0 C2.23605713 1.6554426 4.33476454 3.25445951 6.27734375 5.24609375 C6.27734375 5.90609375 6.27734375 6.56609375 6.27734375 7.24609375 C7.26734375 7.57609375 8.25734375 7.90609375 9.27734375 8.24609375 C10.6640625 9.8046875 10.6640625 9.8046875 11.96484375 11.68359375 C12.40183594 12.30105469 12.83882813 12.91851562 13.2890625 13.5546875 C14.27734375 15.24609375 14.27734375 15.24609375 14.27734375 17.24609375 C14.93734375 17.24609375 15.59734375 17.24609375 16.27734375 17.24609375 C31.92066692 47.56511185 37.62399001 77.27476014 37.27734375 111.24609375 C39.36135109 111.21296647 41.44480141 111.14345506 43.52734375 111.05859375 C45.26757812 111.00638672 45.26757812 111.00638672 47.04296875 110.953125 C51.12516335 110.06076121 51.85461529 108.52360532 54.27734375 105.24609375 C60.20191051 102.82101202 66.97785558 103.04288445 73.27734375 103.24609375 C73.27734375 105.88609375 73.27734375 108.52609375 73.27734375 111.24609375 C74.26734375 111.24609375 75.25734375 111.24609375 76.27734375 111.24609375 C75.94734375 112.89609375 75.61734375 114.54609375 75.27734375 116.24609375 C74.28734375 116.24609375 73.29734375 116.24609375 72.27734375 116.24609375 C72.60734375 118.55609375 72.93734375 120.86609375 73.27734375 123.24609375 C70.21270976 123.4084983 67.15670101 123.52714189 64.08984375 123.62109375 C63.22552734 123.67136719 62.36121094 123.72164062 61.47070312 123.7734375 C55.04148936 123.92123552 55.04148936 123.92123552 52.77026367 121.91455078 C52.3704126 121.37427246 51.97056152 120.83399414 51.55859375 120.27734375 C49.56725301 116.97610657 49.56725301 116.97610657 46.1640625 116.44140625 C45.10832031 116.41820312 44.05257812 116.395 42.96484375 116.37109375 C41.89621094 116.33242188 40.82757813 116.29375 39.7265625 116.25390625 C38.91832031 116.25132812 38.11007813 116.24875 37.27734375 116.24609375 C37.30054688 117.10847656 37.32375 117.97085938 37.34765625 118.859375 C37.58321048 134.79293642 35.90139016 150.71446626 32.27734375 166.24609375 C31.94734375 166.57609375 31.61734375 166.90609375 31.27734375 167.24609375 C31.00921875 168.52484375 30.74109375 169.80359375 30.46484375 171.12109375 C26.35544301 190.03029279 15.75283583 212.26243236 -0.72265625 223.24609375 C101.24734375 223.57609375 203.21734375 223.90609375 308.27734375 224.24609375 C308.60734375 223.25609375 308.93734375 222.26609375 309.27734375 221.24609375 C312.24734375 220.91609375 315.21734375 220.58609375 318.27734375 220.24609375 C317.890625 219.36308594 317.50390625 218.48007812 317.10546875 217.5703125 C313.0664122 208.26248664 309.42475585 198.89815754 306.27734375 189.24609375 C306.01824219 188.5603125 305.75914062 187.87453125 305.4921875 187.16796875 C301.53444587 176.34400558 303.84419656 169.63232432 308.27734375 159.24609375 C308.93734375 159.24609375 309.59734375 159.24609375 310.27734375 159.24609375 C309.61734375 158.25609375 308.95734375 157.26609375 308.27734375 156.24609375 C308.44921875 154.15234375 308.44921875 154.15234375 309.02734375 151.74609375 C309.22585938 150.87210938 309.424375 149.998125 309.62890625 149.09765625 C309.84289062 148.15664063 310.056875 147.215625 310.27734375 146.24609375 C310.66268509 144.20635361 311.03798237 142.16468582 311.40234375 140.12109375 C311.56992187 139.19039062 311.7375 138.2596875 311.91015625 137.30078125 C312.03132813 136.62273437 312.1525 135.9446875 312.27734375 135.24609375 C310.56260553 133.87370257 308.82992367 132.52370814 307.08984375 131.18359375 C306.12691406 130.42949219 305.16398437 129.67539062 304.171875 128.8984375 C301.43705838 127.00128973 301.43705838 127.00128973 298.546875 127.33984375 C295.46604719 128.57005382 294.2698809 130.65579546 292.27734375 133.24609375 C291.28734375 133.24609375 290.29734375 133.24609375 289.27734375 133.24609375 C289.27734375 133.90609375 289.27734375 134.56609375 289.27734375 135.24609375 C280.09057507 138.7606049 271.2580843 141.61599932 261.27734375 140.24609375 C260.61734375 139.25609375 259.95734375 138.26609375 259.27734375 137.24609375 C258.16359375 137.24609375 257.04984375 137.24609375 255.90234375 137.24609375 C252.27734375 137.24609375 252.27734375 137.24609375 249.83984375 136.18359375 C247.51090381 133.29570823 248.0068358 130.83032413 248.27734375 127.24609375 C251.29602809 125.73675158 253.95031604 126.07098703 257.27734375 126.24609375 C258.26734375 126.90609375 259.25734375 127.56609375 260.27734375 128.24609375 C261.96484442 127.63407766 263.62814763 126.95487748 265.27734375 126.24609375 C267.77406864 125.84987436 270.2744831 125.47649996 272.77734375 125.12109375 C276.51111717 124.5015646 279.49996401 124.00542986 282.296875 121.2734375 C283.62006033 119.11238203 283.62006033 119.11238203 284.515625 116.890625 C284.76699219 116.34792969 285.01835937 115.80523437 285.27734375 115.24609375 C285.93734375 115.24609375 286.59734375 115.24609375 287.27734375 115.24609375 C287.11234375 114.46234375 286.94734375 113.67859375 286.77734375 112.87109375 C286.14402339 108.27952117 286.21471443 103.88066349 286.27734375 99.24609375 C282.97734375 99.24609375 279.67734375 99.24609375 276.27734375 99.24609375 C276.00921875 98.11171875 275.74109375 96.97734375 275.46484375 95.80859375 C275.07296875 94.63296875 274.68109375 93.45734375 274.27734375 92.24609375 C273.28734375 91.91609375 272.29734375 91.58609375 271.27734375 91.24609375 C271.58671875 89.79203125 271.58671875 89.79203125 271.90234375 88.30859375 C272.5009394 84.3368307 271.72395625 81.09273344 270.65234375 77.26171875 C270.27734375 75.24609375 270.27734375 75.24609375 271.27734375 72.24609375 C275.72286145 68.55956687 279.59341281 67.13636535 285.27734375 67.24609375 C292.90234375 68.74609375 292.90234375 68.74609375 295.27734375 72.24609375 C297.40436401 77.05987645 297.45531873 81.08481922 297.27734375 86.24609375 C299.26226017 85.97933171 299.26226017 85.97933171 301.27734375 85.24609375 C301.60734375 84.25609375 301.93734375 83.26609375 302.27734375 82.24609375 C305.07604402 80.84674362 307.18233167 80.9934397 310.27734375 81.24609375 C310.96425293 81.95995239 310.96425293 81.95995239 311.66503906 82.68823242 C313.75167854 84.70441148 315.2991029 84.909395 318.13671875 85.421875 C319.08804687 85.61072266 320.039375 85.79957031 321.01953125 85.99414062 C323.0075399 86.36721497 324.99713299 86.73195317 326.98828125 87.08789062 C333.32576118 88.3647818 338.34425505 89.85204392 342.27734375 95.24609375 C343.82136418 98.59624115 344.76596273 101.98488994 345.65234375 105.55859375 C346.13731818 107.3677261 346.6241926 109.17635057 347.11328125 110.984375 C347.3148584 111.77884033 347.51643555 112.57330566 347.72412109 113.3918457 C348.11668723 115.24391367 348.11668723 115.24391367 349.27734375 116.24609375 C349.31976098 118.5790415 349.31827312 120.91311942 349.27734375 123.24609375 C349.27734375 126.74850292 352.041999 128.74463653 354.27734375 131.24609375 C354.93734375 131.57609375 355.59734375 131.90609375 356.27734375 132.24609375 C356.03177734 133.57833984 356.03177734 133.57833984 355.78125 134.9375 C354.96431629 140.65603596 355.1722534 146.42079175 355.21484375 152.18359375 C355.22161133 153.92479492 355.22161133 153.92479492 355.22851562 155.70117188 C355.24023728 158.54953309 355.25664615 161.39778597 355.27734375 164.24609375 C357.84690754 163.36742975 360.40661602 162.46922486 362.96484375 161.55859375 C363.68607422 161.31431641 364.40730469 161.07003906 365.15039062 160.81835938 C369.94126628 159.09014396 372.87757725 157.18010927 376.27734375 153.24609375 C376.87160156 152.57964844 377.46585938 151.91320312 378.078125 151.2265625 C378.57699219 150.63488281 379.07585937 150.04320312 379.58984375 149.43359375 C380.10160156 148.82902344 380.61335938 148.22445312 381.140625 147.6015625 C381.51574219 147.15425781 381.89085937 146.70695313 382.27734375 146.24609375 C386.06520972 146.77218625 388.44886599 147.62713286 391.27734375 150.24609375 C391.27734375 150.90609375 391.27734375 151.56609375 391.27734375 152.24609375 C391.97859375 152.32859375 392.67984375 152.41109375 393.40234375 152.49609375 C400.71878653 154.404731 405.49859839 159.89601278 409.27734375 166.24609375 C409.27734375 167.56609375 409.27734375 168.88609375 409.27734375 170.24609375 C404.01967021 171.62310349 402.00498356 170.65451403 397.27734375 168.24609375 C393.63587112 167.41001566 389.97066652 166.80469239 386.27734375 166.24609375 C386.60734375 169.21609375 386.93734375 172.18609375 387.27734375 175.24609375 C384.31848349 177.21866725 381.63381201 178.11881364 378.27734375 179.1953125 C372.88559568 181.08382843 367.6359631 183.33211449 362.36328125 185.52734375 C361.6772583 185.81246826 360.99123535 186.09759277 360.28442383 186.39135742 C358.97128598 186.95057109 357.66582385 187.52825544 356.36987305 188.1262207 C352.89031009 189.71818069 350.17275461 190.61049733 346.33984375 190.43359375 C345.56769531 190.40652344 344.79554688 190.37945312 344 190.3515625 C343.43152344 190.31675781 342.86304688 190.28195312 342.27734375 190.24609375 C334.79442803 175.64928282 334.79442803 175.64928282 332.27734375 168.24609375 C331.65859375 169.07109375 331.03984375 169.89609375 330.40234375 170.74609375 C329.70109375 171.57109375 328.99984375 172.39609375 328.27734375 173.24609375 C327.61734375 173.24609375 326.95734375 173.24609375 326.27734375 173.24609375 C324.49565719 178.34956881 326.34914678 181.848503 328.33984375 186.55859375 C328.9891213 188.15981588 329.63754058 189.76138626 330.28515625 191.36328125 C330.61676758 192.17249023 330.94837891 192.98169922 331.29003906 193.81542969 C332.82074789 197.58391067 334.27545859 201.3794729 335.71484375 205.18359375 C335.97338135 205.85108643 336.23191895 206.5185791 336.49829102 207.20629883 C337.57526854 210.04687778 338.27734375 212.17864797 338.27734375 215.24609375 C338.91671875 215.41109375 339.55609375 215.57609375 340.21484375 215.74609375 C342.27734375 217.24609375 342.27734375 217.24609375 342.69750977 219.14257812 C342.89078776 221.17708333 343.08406576 223.21158854 343.27734375 225.24609375 C344.1502002 225.24085693 345.02305664 225.23562012 345.92236328 225.23022461 C362.0450699 225.14703102 378.1600129 225.15508621 394.27734375 225.62109375 C396.19764404 225.66737915 396.19764404 225.66737915 398.15673828 225.71459961 C399.91800049 225.77272827 399.91800049 225.77272827 401.71484375 225.83203125 C402.74480469 225.86345215 403.77476562 225.89487305 404.8359375 225.92724609 C407.27734375 226.24609375 407.27734375 226.24609375 409.27734375 228.24609375 C393.90904846 230.16513166 378.25264541 229.77042636 362.7897644 230.04218483 C356.63821014 230.15036016 350.48672019 230.26041733 344.33534241 230.37823486 C278.55343683 231.61900429 212.75686494 231.39999003 146.96621967 231.37555507 C134.54673118 231.37103566 122.12725202 231.37190319 109.70776367 231.37646484 C95.09320314 231.38183061 80.47864807 231.38391972 65.86408669 231.38085258 C64.30565743 231.38053416 62.74722817 231.38021979 61.1887989 231.37990952 C60.03998094 231.3796781 60.03998094 231.3796781 58.86795453 231.37944201 C53.53000967 231.37858667 48.19206838 231.38001718 42.85412407 231.38238907 C36.37351771 231.38520745 29.89292345 231.38440392 23.41231846 231.37910832 C20.12255155 231.37650661 16.83280857 231.3759578 13.54304123 231.37875748 C0.96249495 231.38847384 -11.56660193 231.32628222 -24.12223625 230.47879601 C-29.3013227 230.14406142 -34.47583834 230.040675 -39.6640625 229.96484375 C-41.75195358 229.9271086 -43.83984419 229.88934747 -45.92773438 229.8515625 C-49.12669064 229.79779024 -52.32566607 229.74544042 -55.5246582 229.69384766 C-58.67536415 229.64182509 -61.82595113 229.58477125 -64.9765625 229.52734375 C-65.92358536 229.51376831 -66.87060822 229.50019287 -67.84632874 229.48620605 C-73.53397053 229.38081763 -79.07779737 228.95741581 -84.72265625 228.24609375 C-81.89424364 225.41768114 -79.95109757 225.94694529 -75.9921875 225.8671875 C-74.98921883 225.84169579 -74.98921883 225.84169579 -73.96598816 225.81568909 C-71.82247441 225.76251421 -69.67897598 225.72230996 -67.53515625 225.68359375 C-65.40929722 225.63941065 -63.28357516 225.5923747 -61.15788269 225.54078674 C-59.21581921 225.49453642 -57.27355676 225.4568771 -55.33129883 225.41967773 C-51.74011148 225.24693339 -48.27123471 224.81218941 -44.72265625 224.24609375 C-45.71265625 223.91609375 -46.70265625 223.58609375 -47.72265625 223.24609375 C-47.72265625 222.58609375 -47.72265625 221.92609375 -47.72265625 221.24609375 C-48.28339844 221.16488281 -48.84414062 221.08367187 -49.421875 221 C-56.69134218 218.61798444 -64.44570064 209.50574402 -68.72265625 203.24609375 C-68.72265625 202.25609375 -68.72265625 201.26609375 -68.72265625 200.24609375 C-69.38265625 200.24609375 -70.04265625 200.24609375 -70.72265625 200.24609375 C-75.29783181 191.39557211 -79.54230194 182.70920682 -82.72265625 173.24609375 C-83.23921568 171.9319058 -83.75980486 170.61929186 -84.28515625 169.30859375 C-86.2420312 164.07263106 -87.47633682 158.68672086 -88.72265625 153.24609375 C-88.98175781 152.17673584 -89.24085937 151.10737793 -89.5078125 150.00561523 C-92.02565388 138.42307041 -92.24754249 127.01974677 -92.22363281 115.19555664 C-92.22266674 111.84497323 -92.26429453 108.49673576 -92.30859375 105.14648438 C-92.41062845 86.60933094 -89.97349572 68.75644187 -83.72265625 51.24609375 C-83.4285083 50.39394287 -83.13436035 49.54179199 -82.83129883 48.66381836 C-82.47781372 47.66620483 -82.47781372 47.66620483 -82.1171875 46.6484375 C-81.85615234 45.91044922 -81.59511719 45.17246094 -81.32617188 44.41210938 C-80.93461914 43.30899414 -80.93461914 43.30899414 -80.53515625 42.18359375 C-80.26251953 41.41337891 -79.98988281 40.64316406 -79.70898438 39.84960938 C-79.04760799 37.98151117 -78.38523968 36.11376418 -77.72265625 34.24609375 C-77.06265625 34.24609375 -76.40265625 34.24609375 -75.72265625 34.24609375 C-75.58150391 33.20388672 -75.58150391 33.20388672 -75.4375 32.140625 C-74.57602742 28.65236719 -73.10290738 26.02868352 -71.28515625 22.93359375 C-70.66769531 21.86496094 -70.05023438 20.79632813 -69.4140625 19.6953125 C-68.85589844 18.88707031 -68.29773438 18.07882813 -67.72265625 17.24609375 C-67.06265625 17.24609375 -66.40265625 17.24609375 -65.72265625 17.24609375 C-65.06265625 15.59609375 -64.40265625 13.94609375 -63.72265625 12.24609375 C-63.06265625 12.24609375 -62.40265625 12.24609375 -61.72265625 12.24609375 C-61.45453125 11.60671875 -61.18640625 10.96734375 -60.91015625 10.30859375 C-59.72265625 8.24609375 -59.72265625 8.24609375 -56.72265625 7.24609375 C-56.72265625 6.58609375 -56.72265625 5.92609375 -56.72265625 5.24609375 C-55.07265625 4.58609375 -53.42265625 3.92609375 -51.72265625 3.24609375 C-51.72265625 2.58609375 -51.72265625 1.92609375 -51.72265625 1.24609375 C-36.80207743 -8.16035811 -15.2179645 -9.80325116 0 0 Z " fill="#F60505" transform="translate(148.72265625,140.75390625)"/>
<path d="M0 0 C8.64996345 4.74136196 13.77201599 11.9405264 18.515625 20.37890625 C18.96679688 21.1471875 19.41796875 21.91546875 19.8828125 22.70703125 C24.12143931 30.44713238 26.33901861 38.88340591 28.515625 47.37890625 C28.71607422 48.13961426 28.91652344 48.90032227 29.12304688 49.68408203 C32.85506486 64.24201121 32.97463325 78.41523717 32.515625 93.37890625 C29.875625 93.37890625 27.235625 93.37890625 24.515625 93.37890625 C24.47074951 92.73042725 24.42587402 92.08194824 24.37963867 91.41381836 C23.48804845 78.87270801 22.45916926 66.62405038 19.515625 54.37890625 C19.515625 58.00890625 19.515625 61.63890625 19.515625 65.37890625 C20.175625 65.37890625 20.835625 65.37890625 21.515625 65.37890625 C22.6898038 74.4158895 23.80557372 83.2455217 23.515625 92.37890625 C20.875625 92.37890625 18.235625 92.37890625 15.515625 92.37890625 C15.185625 87.75890625 14.855625 83.13890625 14.515625 78.37890625 C14.515625 83.32890625 14.515625 88.27890625 14.515625 93.37890625 C11.875625 93.37890625 9.235625 93.37890625 6.515625 93.37890625 C6.39558105 92.8055957 6.27553711 92.23228516 6.15185547 91.64160156 C3.16737346 73.24313967 3.16737346 73.24313967 -6.953125 58.60546875 C-10.41582613 56.92755493 -12.6826019 56.83579581 -16.484375 57.37890625 C-23.50960618 62.96715833 -26.4492106 70.67065887 -27.484375 79.37890625 C-28.53629566 95.45329721 -27.74499402 109.79887777 -20.484375 124.37890625 C-20.14921875 125.095625 -19.8140625 125.81234375 -19.46875 126.55078125 C-18.13660185 129.02477067 -17.15259903 129.51353629 -14.484375 130.37890625 C-10.17138089 130.68697726 -7.15989692 130.70106698 -3.484375 128.37890625 C3.46902816 119.59358668 4.44441923 108.09096397 5.515625 97.37890625 C14.425625 97.37890625 23.335625 97.37890625 32.515625 97.37890625 C32.556875 100.34890625 32.598125 103.31890625 32.640625 106.37890625 C32.65883301 107.29800781 32.67704102 108.21710938 32.69580078 109.1640625 C32.73201375 114.61236175 31.98799304 119.13771554 30.515625 124.37890625 C30.1996033 126.24995535 29.90594644 128.12499726 29.640625 130.00390625 C27.22151893 144.8348873 22.18149747 159.44274646 14.515625 172.37890625 C13.855625 172.37890625 13.195625 172.37890625 12.515625 172.37890625 C12.25910156 173.12011719 12.00257813 173.86132812 11.73828125 174.625 C9.14282426 180.47099736 3.96090223 184.95859186 -1.671875 187.87890625 C-7.50555855 190.10174085 -13.35601997 190.46739753 -19.484375 189.37890625 C-23.39215212 187.60664677 -26.34217279 185.27773651 -29.484375 182.37890625 C-30.18175781 181.74984375 -30.87914063 181.12078125 -31.59765625 180.47265625 C-41.42276917 170.55215388 -47.10222204 155.66475343 -50.484375 142.37890625 C-50.71286133 141.48945313 -50.94134766 140.6 -51.17675781 139.68359375 C-58.44830449 109.849589 -58.86302755 75.9851251 -50.484375 46.37890625 C-50.12347369 45.01047578 -49.76277616 43.64199154 -49.40234375 42.2734375 C-47.91651348 37.03455387 -46.13514188 32.11651553 -43.53515625 27.328125 C-42.77527739 25.91853559 -42.07080468 24.47860696 -41.40234375 23.0234375 C-36.26455829 11.94025483 -29.25369486 3.29137203 -17.9453125 -1.75390625 C-11.57980234 -3.99699078 -5.98240934 -2.63336117 0 0 Z " fill="#F60707" transform="translate(143.484375,158.62109375)"/>
<path d="M0 0 C3.41565605 1.92130653 4.63403076 3.23320731 6.3125 6.75 C7.13522464 10.63924376 7.13687457 14.03063742 7 18 C8.98491642 17.73323796 8.98491642 17.73323796 11 17 C11.33 16.01 11.66 15.02 12 14 C14.79870027 12.60064987 16.90498792 12.74734595 20 13 C20.68690918 13.71385864 20.68690918 13.71385864 21.38769531 14.44213867 C23.47433479 16.45831773 25.02175915 16.66330125 27.859375 17.17578125 C28.81070312 17.36462891 29.76203125 17.55347656 30.7421875 17.74804688 C32.73019615 18.12112122 34.71978924 18.48585942 36.7109375 18.84179688 C43.04841743 20.11868805 48.0669113 21.60595017 52 27 C53.54402043 30.3501474 54.48861898 33.73879619 55.375 37.3125 C55.85997443 39.12163235 56.34684885 40.93025682 56.8359375 42.73828125 C57.03751465 43.53274658 57.2390918 44.32721191 57.44677734 45.14575195 C57.83934348 46.99781992 57.83934348 46.99781992 59 48 C59.04241723 50.33294775 59.04092937 52.66702567 59 55 C59 58.50240917 61.76465525 60.49854278 64 63 C64.66 63.33 65.32 63.66 66 64 C65.83628906 64.88816406 65.67257812 65.77632813 65.50390625 66.69140625 C64.68697254 72.40994221 64.89490965 78.174698 64.9375 83.9375 C64.94426758 85.67870117 64.94426758 85.67870117 64.95117188 87.45507812 C64.96289353 90.30343934 64.9793024 93.15169222 65 96 C67.56956379 95.121336 70.12927227 94.22313111 72.6875 93.3125 C73.40873047 93.06822266 74.12996094 92.82394531 74.87304688 92.57226562 C79.66392253 90.84405021 82.6002335 88.93401552 86 85 C86.59425781 84.33355469 87.18851563 83.66710937 87.80078125 82.98046875 C88.29964844 82.38878906 88.79851562 81.79710937 89.3125 81.1875 C89.82425781 80.58292969 90.33601563 79.97835937 90.86328125 79.35546875 C91.23839844 78.90816406 91.61351562 78.46085937 92 78 C95.78786597 78.5260925 98.17152224 79.38103911 101 82 C101 82.66 101 83.32 101 84 C101.70125 84.0825 102.4025 84.165 103.125 84.25 C110.44144278 86.15863725 115.22125464 91.64991903 119 98 C119 99.32 119 100.64 119 102 C113.74232646 103.37700974 111.72763981 102.40842028 107 100 C103.35852737 99.16392191 99.69332277 98.55859864 96 98 C96.33 100.97 96.66 103.94 97 107 C94.04113974 108.9725735 91.35646826 109.87271989 88 110.94921875 C82.60825193 112.83773468 77.35861935 115.08602074 72.0859375 117.28125 C71.39991455 117.56637451 70.7138916 117.85149902 70.00708008 118.14526367 C68.69394223 118.70447734 67.3884801 119.28216169 66.0925293 119.88012695 C62.61296634 121.47208694 59.89541086 122.36440358 56.0625 122.1875 C55.29035156 122.16042969 54.51820313 122.13335937 53.72265625 122.10546875 C53.15417969 122.07066406 52.58570313 122.03585937 52 122 C44.51708428 107.40318907 44.51708428 107.40318907 42 100 C41.38125 100.825 40.7625 101.65 40.125 102.5 C39.42375 103.325 38.7225 104.15 38 105 C37.34 105 36.68 105 36 105 C34.21831344 110.10347506 36.07180303 113.60240925 38.0625 118.3125 C38.71177755 119.91372213 39.36019683 121.51529251 40.0078125 123.1171875 C40.50522949 124.33100098 40.50522949 124.33100098 41.01269531 125.56933594 C42.54340414 129.33781692 43.99811484 133.13337915 45.4375 136.9375 C45.6960376 137.60499268 45.9545752 138.27248535 46.22094727 138.96020508 C47.29792479 141.80078403 48 143.93255422 48 147 C48.639375 147.165 49.27875 147.33 49.9375 147.5 C52 149 52 149 52.42016602 150.89648438 C52.61344401 152.93098958 52.80672201 154.96549479 53 157 C53.87285645 156.99476318 54.74571289 156.98952637 55.64501953 156.98413086 C71.76772615 156.90093727 87.88266915 156.90899246 104 157.375 C105.92030029 157.4212854 105.92030029 157.4212854 107.87939453 157.46850586 C109.64065674 157.52663452 109.64065674 157.52663452 111.4375 157.5859375 C112.46746094 157.6173584 113.49742187 157.6487793 114.55859375 157.68115234 C117 158 117 158 119 160 C103.63170471 161.91903791 87.97530166 161.52433261 72.51242065 161.79609108 C66.36086639 161.90426641 60.20937644 162.01432358 54.05799866 162.13214111 C-11.72390692 163.37291054 -77.52047881 163.15389628 -143.31112408 163.12946132 C-155.73061257 163.12494191 -168.15009173 163.12580944 -180.56958008 163.13037109 C-195.18414061 163.13573686 -209.79869568 163.13782597 -224.41325706 163.13475883 C-225.97168632 163.13444041 -227.53011558 163.13412604 -229.08854485 163.13381577 C-230.23736281 163.13358435 -230.23736281 163.13358435 -231.40938922 163.13334826 C-236.74733408 163.13249292 -242.08527537 163.13392343 -247.42321968 163.13629532 C-253.90382604 163.1391137 -260.3844203 163.13831017 -266.86502529 163.13301457 C-270.1547922 163.13041286 -273.44453518 163.12986405 -276.73430252 163.13266373 C-289.3148488 163.14238009 -301.84394568 163.08018847 -314.39958 162.23270226 C-319.57866645 161.89796767 -324.75318209 161.79458125 -329.94140625 161.71875 C-332.02929733 161.68101485 -334.11718794 161.64325372 -336.20507812 161.60546875 C-339.40403439 161.55169649 -342.60300982 161.49934667 -345.80200195 161.44775391 C-348.9527079 161.39573134 -352.10329488 161.3386775 -355.25390625 161.28125 C-356.20092911 161.26767456 -357.14795197 161.25409912 -358.12367249 161.2401123 C-363.81131428 161.13472388 -369.35514112 160.71132206 -375 160 C-372.17158739 157.17158739 -370.22844132 157.70085154 -366.26953125 157.62109375 C-365.60088547 157.60409927 -364.93223969 157.5871048 -364.24333191 157.56959534 C-362.09981816 157.51642046 -359.95631973 157.47621621 -357.8125 157.4375 C-355.68664097 157.3933169 -353.56091891 157.34628095 -351.43522644 157.29469299 C-349.49316296 157.24844267 -347.55090051 157.21078335 -345.60864258 157.17358398 C-342.01745523 157.00083964 -338.54857846 156.56609566 -335 156 C-335.99 155.34 -336.98 154.68 -338 154 C-333.10061866 154.4803315 -330.16325475 155.50204715 -326 158 C-320.76217723 158.97264463 -315.62103168 159.21271444 -310.3125 159.25 C-309.56677734 159.270625 -308.82105469 159.29125 -308.05273438 159.3125 C-303.59102053 159.34434096 -301.36288627 158.88464285 -298 156 C-296.68 156 -295.36 156 -294 156 C-294 155.34 -294 154.68 -294 154 C-292.53125 152.80859375 -292.53125 152.80859375 -290.5 151.4375 C-285.59984663 147.91113963 -281.85473916 143.61338463 -278 139 C-278 142.65753288 -278.73880959 143.22023405 -281.125 145.875 C-281.70507812 146.53242188 -282.28515625 147.18984375 -282.8828125 147.8671875 C-285.42038775 150.42349025 -288.23291303 152.69409419 -291 155 C-189.03 155.33 -87.06 155.66 18 156 C18.33 155.01 18.66 154.02 19 153 C21.97 152.67 24.94 152.34 28 152 C27.61328125 151.11699219 27.2265625 150.23398437 26.828125 149.32421875 C22.78906845 140.01639289 19.1474121 130.65206379 16 121 C15.61134766 119.97132813 15.61134766 119.97132813 15.21484375 118.921875 C11.25710212 108.09791183 13.56685281 101.38623057 18 91 C18.66 91 19.32 91 20 91 C19.34 90.01 18.68 89.02 18 88 C18.171875 85.90625 18.171875 85.90625 18.75 83.5 C18.94851563 82.62601562 19.14703125 81.75203125 19.3515625 80.8515625 C19.56554687 79.91054688 19.77953125 78.96953125 20 78 C20.38534134 75.96025986 20.76063862 73.91859207 21.125 71.875 C21.29257812 70.94429688 21.46015625 70.01359375 21.6328125 69.0546875 C21.75398438 68.37664062 21.87515625 67.69859375 22 67 C20.28526178 65.62760882 18.55257992 64.27761439 16.8125 62.9375 C15.84957031 62.18339844 14.88664062 61.42929687 13.89453125 60.65234375 C11.15971463 58.75519598 11.15971463 58.75519598 8.26953125 59.09375 C5.18870344 60.32396007 3.99253715 62.40970171 2 65 C1.01 65 0.02 65 -1 65 C-1 65.66 -1 66.32 -1 67 C-10.18676868 70.51451115 -19.01925945 73.36990557 -29 72 C-29.66 71.01 -30.32 70.02 -31 69 C-32.11375 69 -33.2275 69 -34.375 69 C-38 69 -38 69 -40.4375 67.9375 C-42.76643994 65.04961448 -42.27050795 62.58423038 -42 59 C-38.98131566 57.49065783 -36.32702771 57.82489328 -33 58 C-32.01 58.66 -31.02 59.32 -30 60 C-28.31249933 59.38798391 -26.64919612 58.70878373 -25 58 C-22.50327511 57.60378061 -20.00286065 57.23040621 -17.5 56.875 C-13.76622658 56.25547085 -10.77737974 55.75933611 -7.98046875 53.02734375 C-6.65728342 50.86628828 -6.65728342 50.86628828 -5.76171875 48.64453125 C-5.51035156 48.10183594 -5.25898438 47.55914062 -5 47 C-4.34 47 -3.68 47 -3 47 C-3.165 46.21625 -3.33 45.4325 -3.5 44.625 C-4.13332036 40.03342742 -4.06262932 35.63456974 -4 31 C-7.3 31 -10.6 31 -14 31 C-14.4021875 29.2984375 -14.4021875 29.2984375 -14.8125 27.5625 C-15.204375 26.386875 -15.59625 25.21125 -16 24 C-16.99 23.67 -17.98 23.34 -19 23 C-18.690625 21.5459375 -18.690625 21.5459375 -18.375 20.0625 C-17.77640435 16.09073695 -18.5533875 12.84663969 -19.625 9.015625 C-20 7 -20 7 -19 4 C-12.41392419 -0.86796908 -7.89126884 -1.61355018 0 0 Z " fill="#030709" transform="translate(439,209)"/>
<path d="M0 0 C8.64996345 4.74136196 13.77201599 11.9405264 18.515625 20.37890625 C18.96679688 21.1471875 19.41796875 21.91546875 19.8828125 22.70703125 C24.12143931 30.44713238 26.33901861 38.88340591 28.515625 47.37890625 C28.71607422 48.13961426 28.91652344 48.90032227 29.12304688 49.68408203 C32.85506486 64.24201121 32.97463325 78.41523717 32.515625 93.37890625 C29.875625 93.37890625 27.235625 93.37890625 24.515625 93.37890625 C24.47074951 92.73042725 24.42587402 92.08194824 24.37963867 91.41381836 C22.9731167 68.38194975 22.9731167 68.38194975 16.515625 46.37890625 C16.16757813 45.45722656 15.81953125 44.53554687 15.4609375 43.5859375 C11.14094557 32.44713477 5.51632809 22.87925779 -5.484375 17.37890625 C-15.0269698 16.62233947 -15.0269698 16.62233947 -23.484375 20.37890625 C-38.95515307 34.40830748 -44.89257977 58.21965739 -46.484375 78.37890625 C-47.14438819 92.40630198 -47.18434872 106.55870176 -44.484375 120.37890625 C-44.28303955 121.45060059 -44.28303955 121.45060059 -44.07763672 122.54394531 C-42.04494264 133.20039465 -39.66747254 143.70375059 -33.83203125 153.015625 C-32.484375 155.37890625 -32.484375 155.37890625 -32.484375 158.37890625 C-31.824375 158.37890625 -31.164375 158.37890625 -30.484375 158.37890625 C-29.29032673 160.10364265 -28.09709379 161.82895616 -26.91015625 163.55859375 C-23.91650192 167.38062915 -20.16404429 169.43946044 -15.484375 170.37890625 C-8.94459474 171.12876827 -3.86953246 170.26020043 1.515625 166.37890625 C11.36575735 157.7201506 16.38197653 144.79468882 19.515625 132.37890625 C19.67772461 131.74670166 19.83982422 131.11449707 20.00683594 130.46313477 C21.64803615 123.65371694 22.38626689 116.77112617 23.140625 109.81640625 C23.34171875 108.01719727 23.34171875 108.01719727 23.546875 106.18164062 C23.87415043 103.24785017 24.19695822 100.31364209 24.515625 97.37890625 C27.155625 97.37890625 29.795625 97.37890625 32.515625 97.37890625 C32.57006501 100.37915572 32.6095086 103.37839664 32.640625 106.37890625 C32.65738281 107.21808594 32.67414063 108.05726563 32.69140625 108.921875 C32.73434865 114.46144431 32.01278998 119.04944585 30.515625 124.37890625 C30.1996033 126.24995535 29.90594644 128.12499726 29.640625 130.00390625 C27.22151893 144.8348873 22.18149747 159.44274646 14.515625 172.37890625 C13.855625 172.37890625 13.195625 172.37890625 12.515625 172.37890625 C12.25910156 173.12011719 12.00257813 173.86132812 11.73828125 174.625 C9.14282426 180.47099736 3.96090223 184.95859186 -1.671875 187.87890625 C-7.50555855 190.10174085 -13.35601997 190.46739753 -19.484375 189.37890625 C-23.39215212 187.60664677 -26.34217279 185.27773651 -29.484375 182.37890625 C-30.18175781 181.74984375 -30.87914063 181.12078125 -31.59765625 180.47265625 C-41.42276917 170.55215388 -47.10222204 155.66475343 -50.484375 142.37890625 C-50.71286133 141.48945313 -50.94134766 140.6 -51.17675781 139.68359375 C-58.44830449 109.849589 -58.86302755 75.9851251 -50.484375 46.37890625 C-50.12347369 45.01047578 -49.76277616 43.64199154 -49.40234375 42.2734375 C-47.91651348 37.03455387 -46.13514188 32.11651553 -43.53515625 27.328125 C-42.77527739 25.91853559 -42.07080468 24.47860696 -41.40234375 23.0234375 C-36.26455829 11.94025483 -29.25369486 3.29137203 -17.9453125 -1.75390625 C-11.57980234 -3.99699078 -5.98240934 -2.63336117 0 0 Z " fill="#FDF1F1" transform="translate(143.484375,158.62109375)"/>
<path d="M0 0 C2.07116895 1.55889689 3.39688637 2.93885391 5 5 C3.02 4.67 1.04 4.34 -1 4 C-1 3.34 -1 2.68 -1 2 C-10.54888423 -1.34421276 -19.99274824 -1.68073674 -30 -2 C-30 -1.34 -30 -0.68 -30 0 C-31.43359375 1.375 -31.43359375 1.375 -33.4375 3 C-40.89729239 9.34480562 -46.81630823 16.26935482 -51.5625 24.8125 C-52.036875 25.534375 -52.51125 26.25625 -53 27 C-53.66 27 -54.32 27 -55 27 C-55.2475 27.804375 -55.495 28.60875 -55.75 29.4375 C-56.72278508 32.20993747 -57.77864834 34.77604713 -59 37.4375 C-62.41771531 45.05773932 -63.73322207 52.79289621 -65 61 C-65.66 61 -66.32 61 -67 61 C-67.13277344 61.92683594 -67.26554687 62.85367188 -67.40234375 63.80859375 C-67.66724609 65.60490234 -67.66724609 65.60490234 -67.9375 67.4375 C-68.19853516 69.22994141 -68.19853516 69.22994141 -68.46484375 71.05859375 C-69 74 -69 74 -70 75 C-71.47779813 87.47918417 -71.28207011 100.20465314 -71.3125 112.75 C-71.31511841 113.78481506 -71.31773682 114.81963013 -71.32043457 115.88580322 C-71.63266829 144.15401816 -71.63266829 144.15401816 -63.89208984 170.97607422 C-62.64994118 173.79419474 -62.17067123 176.59319274 -61.6875 179.625 C-60.44994477 186.01440031 -58.25504189 191.35296021 -55.33666992 197.11376953 C-53.89711232 199.96510447 -53 201.75330219 -53 205 C-51.68 205.33 -50.36 205.66 -49 206 C-48.505 208.475 -48.505 208.475 -48 211 C-47.34 211 -46.68 211 -46 211 C-45.67 212.32 -45.34 213.64 -45 215 C-44.34 215 -43.68 215 -43 215 C-41.31237149 216.6454378 -39.6459651 218.31288577 -38 220 C-37.34 220.33 -36.68 220.66 -36 221 C-36 221.99 -36 222.98 -36 224 C-34.700625 224.1546875 -34.700625 224.1546875 -33.375 224.3125 C-30 225 -30 225 -27.28125 226.5 C-23.52041631 228.21923826 -20.18774698 228.54971304 -16.125 228.6875 C-15.43664062 228.72166016 -14.74828125 228.75582031 -14.0390625 228.79101562 C-12.35991387 228.87264091 -10.67998832 228.9380157 -9 229 C-9 229.33 -9 229.66 -9 230 C-11.68756955 230.02720824 -14.37485798 230.0469388 -17.0625 230.0625 C-17.81466797 230.07087891 -18.56683594 230.07925781 -19.34179688 230.08789062 C-31.59531848 230.14093617 -31.59531848 230.14093617 -36.9375 227.125 C-39.56942022 225.69537731 -42.00738284 224.66066846 -44.875 223.8125 C-53.1160226 220.833427 -61.11415477 212.1508066 -66 205 C-66 204.01 -66 203.02 -66 202 C-66.66 202 -67.32 202 -68 202 C-72.57517556 193.14947836 -76.81964569 184.46311307 -80 175 C-80.51655943 173.68581205 -81.03714861 172.37319811 -81.5625 171.0625 C-83.51937495 165.82653731 -84.75368057 160.44062711 -86 155 C-86.25910156 153.93064209 -86.51820312 152.86128418 -86.78515625 151.75952148 C-89.30299763 140.17697666 -89.52488624 128.77365302 -89.50097656 116.94946289 C-89.50001049 113.59887948 -89.54163828 110.25064201 -89.5859375 106.90039062 C-89.6879722 88.36323719 -87.25083947 70.51034812 -81 53 C-80.70585205 52.14784912 -80.4117041 51.29569824 -80.10864258 50.41772461 C-79.75515747 49.42011108 -79.75515747 49.42011108 -79.39453125 48.40234375 C-79.13349609 47.66435547 -78.87246094 46.92636719 -78.60351562 46.16601562 C-78.21196289 45.06290039 -78.21196289 45.06290039 -77.8125 43.9375 C-77.53986328 43.16728516 -77.26722656 42.39707031 -76.98632812 41.60351562 C-76.32495174 39.73541742 -75.66258343 37.86767043 -75 36 C-74.34 36 -73.68 36 -73 36 C-72.85884766 34.95779297 -72.85884766 34.95779297 -72.71484375 33.89453125 C-71.85337117 30.40627344 -70.38025113 27.78258977 -68.5625 24.6875 C-67.94503906 23.61886719 -67.32757813 22.55023438 -66.69140625 21.44921875 C-66.13324219 20.64097656 -65.57507813 19.83273438 -65 19 C-64.34 19 -63.68 19 -63 19 C-62.34 17.35 -61.68 15.7 -61 14 C-60.34 14 -59.68 14 -59 14 C-58.731875 13.360625 -58.46375 12.72125 -58.1875 12.0625 C-57 10 -57 10 -54 9 C-54 8.34 -54 7.68 -54 7 C-52.35 6.34 -50.7 5.68 -49 5 C-49 4.34 -49 3.68 -49 3 C-35.07447878 -5.77913294 -14.92560821 -7.93160504 0 0 Z " fill="#B90C0D" transform="translate(146,139)"/>
<path d="M0 0 C2.27733832 3.41600748 2.62779248 5.96091086 3.2421875 9.94140625 C3.49226563 10.62074219 3.74234375 11.30007813 4 12 C4.66257812 12.25652344 5.32515625 12.51304687 6.0078125 12.77734375 C8 14 8 14 8.48388672 15.89672852 C8.7259963 17.92400754 8.86855167 19.96255095 9 22 C9.87285645 21.99476318 10.74571289 21.98952637 11.64501953 21.98413086 C27.76772615 21.90093727 43.88266915 21.90899246 60 22.375 C61.92030029 22.4212854 61.92030029 22.4212854 63.87939453 22.46850586 C65.05356934 22.5072583 66.22774414 22.54601074 67.4375 22.5859375 C68.46746094 22.6173584 69.49742187 22.6487793 70.55859375 22.68115234 C73 23 73 23 75 25 C59.63170471 26.91903791 43.97530166 26.52433261 28.51242065 26.79609108 C22.36086639 26.90426641 16.20937644 27.01432358 10.05799866 27.13214111 C-55.72390692 28.37291054 -121.52047881 28.15389628 -187.31112408 28.12946132 C-199.73061257 28.12494191 -212.15009173 28.12580944 -224.56958008 28.13037109 C-239.18414061 28.13573686 -253.79869568 28.13782597 -268.41325706 28.13475883 C-269.97168632 28.13444041 -271.53011558 28.13412604 -273.08854485 28.13381577 C-274.23736281 28.13358435 -274.23736281 28.13358435 -275.40938922 28.13334826 C-280.74733408 28.13249292 -286.08527537 28.13392343 -291.42321968 28.13629532 C-297.90382604 28.1391137 -304.3844203 28.13831017 -310.86502529 28.13301457 C-314.1547922 28.13041286 -317.44453518 28.12986405 -320.73430252 28.13266373 C-333.3148488 28.14238009 -345.84394568 28.08018847 -358.39958 27.23270226 C-363.57866645 26.89796767 -368.75318209 26.79458125 -373.94140625 26.71875 C-376.02929733 26.68101485 -378.11718794 26.64325372 -380.20507812 26.60546875 C-383.40403439 26.55169649 -386.60300982 26.49934667 -389.80200195 26.44775391 C-392.9527079 26.39573134 -396.10329488 26.3386775 -399.25390625 26.28125 C-400.20092911 26.26767456 -401.14795197 26.25409912 -402.12367249 26.2401123 C-407.81131428 26.13472388 -413.35514112 25.71132206 -419 25 C-416.17158739 22.17158739 -414.22844132 22.70085154 -410.26953125 22.62109375 C-409.60088547 22.60409927 -408.93223969 22.5871048 -408.24333191 22.56959534 C-406.09981816 22.51642046 -403.95631973 22.47621621 -401.8125 22.4375 C-399.68664097 22.3933169 -397.56091891 22.34628095 -395.43522644 22.29469299 C-393.49316296 22.24844267 -391.55090051 22.21078335 -389.60864258 22.17358398 C-386.01745523 22.00083964 -382.54857846 21.56609566 -379 21 C-379.99 20.34 -380.98 19.68 -382 19 C-377.10061866 19.4803315 -374.16325475 20.50204715 -370 23 C-364.76217723 23.97264463 -359.62103168 24.21271444 -354.3125 24.25 C-353.56677734 24.270625 -352.82105469 24.29125 -352.05273438 24.3125 C-347.59102053 24.34434096 -345.36288627 23.88464285 -342 21 C-340.68 21 -339.36 21 -338 21 C-338 20.34 -338 19.68 -338 19 C-336.53125 17.80859375 -336.53125 17.80859375 -334.5 16.4375 C-329.59984663 12.91113963 -325.85473916 8.61338463 -322 4 C-322 7.65753288 -322.73880959 8.22023405 -325.125 10.875 C-325.70507812 11.53242188 -326.28515625 12.18984375 -326.8828125 12.8671875 C-329.42038775 15.42349025 -332.23291303 17.69409419 -335 20 C-233.03 20.33 -131.06 20.66 -26 21 C-25.67 20.01 -25.34 19.02 -25 18 C-19.555 17.505 -19.555 17.505 -14 17 C-14 17.66 -14 18.32 -14 19 C-18.95 19.495 -18.95 19.495 -24 20 C-24.33 20.99 -24.66 21.98 -25 23 C-8.665 23.495 -8.665 23.495 8 24 C7.67 21.03 7.34 18.06 7 15 C5.35 14.67 3.7 14.34 2 14 C1.66179834 12.4176994 1.32964061 10.83410625 1 9.25 C0.814375 8.36828125 0.62875 7.4865625 0.4375 6.578125 C0 4 0 4 0 0 Z " fill="#117788" transform="translate(483,344)"/>
<path d="M0 0 C10.93317914 8.9250442 15.78764608 20.7500485 17.6875 34.5625 C18.35133728 41.1775803 18.1412271 47.86068113 18.0625 54.5 C15.4225 54.5 12.7825 54.5 10.0625 54.5 C9.94245605 53.92668945 9.82241211 53.35337891 9.69873047 52.76269531 C6.71424846 34.36423342 6.71424846 34.36423342 -3.40625 19.7265625 C-6.86895113 18.04864868 -9.1357269 17.95688956 -12.9375 18.5 C-19.96273118 24.08825208 -22.9023356 31.79175262 -23.9375 40.5 C-24.98942066 56.57439096 -24.19811902 70.91997152 -16.9375 85.5 C-16.60234375 86.21671875 -16.2671875 86.9334375 -15.921875 87.671875 C-14.58972685 90.14586442 -13.60572403 90.63463004 -10.9375 91.5 C-6.62450589 91.80807101 -3.61302192 91.82216073 0.0625 89.5 C6.91821322 80.83810738 8.27906232 69.15475247 9.0625 58.5 C12.0325 58.5 15.0025 58.5 18.0625 58.5 C17.42086245 75.15049444 13.09492598 89.01433859 5.0625 103.5 C4.4025 103.5 3.7425 103.5 3.0625 103.5 C2.7840625 104.36625 2.7840625 104.36625 2.5 105.25 C0.38140502 108.5660617 -2.29264022 110.2388508 -5.9375 111.5 C-11.0613434 112.14277605 -14.97722261 110.92584486 -19.0625 107.8125 C-32.4679651 94.5939637 -34.29374593 74.05670137 -34.4375 56.3125 C-34.36579548 45.76560895 -33.43906916 36.46688478 -29.9375 26.5 C-29.56367187 25.34628906 -29.18984375 24.19257813 -28.8046875 23.00390625 C-25.69716317 14.10321569 -21.22394778 4.65103511 -12.9375 -0.5 C-8.46579724 -2.23098171 -4.26999683 -2.18042391 0 0 Z " fill="#FDF1F0" transform="translate(139.9375,197.5)"/>
<path d="M0 0 C7.01763611 2.86434127 9.15810377 9.34537342 12 16 C14.63569102 22.58922756 14.14451859 28.99084838 14 36 C6.08 36.495 6.08 36.495 -2 37 C-2 38.32 -2 39.64 -2 41 C2.95 41.33 7.9 41.66 13 42 C13.83399734 63.47543161 13.83399734 63.47543161 6.375 72 C3.46809149 74.44792295 2.49816795 74.94360363 -1.3125 75.375 C-5.99446257 74.89886821 -7.0594786 73.57630981 -10 70 C-10.680625 69.319375 -11.36125 68.63875 -12.0625 67.9375 C-21.09536529 54.24251069 -20.37854866 34.74102885 -18.5390625 19.07421875 C-16.33358926 9.07174892 -11.49571596 -1.16905586 0 0 Z " fill="#FA0202" transform="translate(134,215)"/>
<path d="M0 0 C3.57159968 2.74493862 4.56102059 6.70747225 5.9375 10.8125 C6.19764893 11.5744165 6.45779785 12.33633301 6.72583008 13.12133789 C7.49834193 15.40974007 8.25303826 17.70314355 9 20 C9.38671875 21.18851563 9.7734375 22.37703125 10.171875 23.6015625 C16.34374599 43.87378492 17 63.82858906 17 85 C-0.16 85 -17.32 85 -35 85 C-35 85.99 -35 86.98 -35 88 C-30.05 88 -25.1 88 -20 88 C-19.92588482 93.48452296 -19.86505751 98.60902318 -21 104 C-21.33 104 -21.66 104 -22 104 C-22 99.05 -22 94.1 -22 89 C-26.95 89 -31.9 89 -37 89 C-37.495 86.525 -37.495 86.525 -38 84 C-37 83 -37 83 -33.40234375 82.90234375 C-31.91403133 82.9090178 -30.42573568 82.92097817 -28.9375 82.9375 C-28.17888672 82.94201172 -27.42027344 82.94652344 -26.63867188 82.95117188 C-24.75908129 82.9629932 -22.87953101 82.98092922 -21 83 C-21 80.03 -21 77.06 -21 74 C-19.0044484 77.99110319 -18.80453935 79.69986566 -19 84 C-16.36 84 -13.72 84 -11 84 C-11.33 76.74 -11.66 69.48 -12 62 C-11.67 62 -11.34 62 -11 62 C-10.07907719 66.65537356 -9.87794003 71.14685433 -9.9375 75.875 C-9.94201172 76.56335938 -9.94652344 77.25171875 -9.95117188 77.9609375 C-9.96283664 79.64066335 -9.98076729 81.32034375 -10 83 C-7.36 83 -4.72 83 -2 83 C-2.06058594 82.39526855 -2.12117188 81.79053711 -2.18359375 81.16748047 C-2.45876342 78.40361276 -2.72941836 75.63932049 -3 72.875 C-3.09539062 71.92367187 -3.19078125 70.97234375 -3.2890625 69.9921875 C-3.74437277 65.30899618 -4.12693246 60.7123674 -4 56 C-4.66 56 -5.32 56 -6 56 C-6.33 52.04 -6.66 48.08 -7 44 C-6.34 44.33 -5.68 44.66 -5 45 C-1.4767075 57.76139916 -0.78977546 70.82592877 -1 84 C1.64 84 4.28 84 7 84 C6.84336204 58.96556835 3.0563258 36.35853484 -6 13 C-5.34 13 -4.68 13 -4 13 C-4 13.66 -4 14.32 -4 15 C-1.525 15.495 -1.525 15.495 1 16 C1.09688221 10.55306686 1.12862175 5.36095333 0 0 Z " fill="#F20606" transform="translate(169,168)"/>
<path d="M0 0 C3.41565605 1.92130653 4.63403076 3.23320731 6.3125 6.75 C7.13522464 10.63924376 7.13687457 14.03063742 7 18 C8.98491642 17.73323796 8.98491642 17.73323796 11 17 C11.33 16.01 11.66 15.02 12 14 C12.66 14.33 13.32 14.66 14 15 C13.67 16.32 13.34 17.64 13 19 C11.88625 19.12375 10.7725 19.2475 9.625 19.375 C5.96896323 19.6465813 5.96896323 19.6465813 4 22 C3.82683472 24.97315984 3.76809525 27.84205572 3.8125 30.8125 C3.8134668 32.02389648 3.8134668 32.02389648 3.81445312 33.25976562 C3.84420856 37.29658588 4.00159021 41.06227179 5 45 C1.45705649 41.82043531 -0.61816787 39.83654037 -1 35 C-1 34.01 -1 33.02 -1 32 C-2.41633336 31.83052421 -3.83308533 31.66454493 -5.25 31.5 C-6.43335938 31.36078125 -6.43335938 31.36078125 -7.640625 31.21875 C-10.26890397 30.93845381 -10.26890397 30.93845381 -14 31 C-14.268125 29.865625 -14.53625 28.73125 -14.8125 27.5625 C-15.4003125 25.7990625 -15.4003125 25.7990625 -16 24 C-16.99 23.67 -17.98 23.34 -19 23 C-18.79375 22.030625 -18.5875 21.06125 -18.375 20.0625 C-17.77640435 16.09073695 -18.5533875 12.84663969 -19.625 9.015625 C-20 7 -20 7 -19 4 C-12.41392419 -0.86796908 -7.89126884 -1.61355018 0 0 Z " fill="#0C1315" transform="translate(439,209)"/>
<path d="M0 0 C2.31 0 4.62 0 7 0 C7.33 0.99 7.66 1.98 8 3 C8.66 3.33 9.32 3.66 10 4 C10 4.99 10 5.98 10 7 C10.99 7 11.98 7 13 7 C13 5.68 13 4.36 13 3 C14.875 3.25 14.875 3.25 17 4 C17.6837045 5.32467746 18.34964186 6.65863633 19 8 C21.01566157 9.13820692 21.01566157 9.13820692 23 10 C22.99476318 10.57967529 22.98952637 11.15935059 22.98413086 11.7565918 C22.96325666 14.4002167 22.95030673 17.04382421 22.9375 19.6875 C22.92912109 20.59951172 22.92074219 21.51152344 22.91210938 22.45117188 C22.90888672 23.33740234 22.90566406 24.22363281 22.90234375 25.13671875 C22.89710693 25.94842529 22.89187012 26.76013184 22.88647461 27.59643555 C23.0070209 30.14864673 23.440051 32.51026137 24 35 C20.45705649 31.82043531 18.38183213 29.83654037 18 25 C18 24.01 18 23.02 18 22 C16.58366664 21.83052421 15.16691467 21.66454493 13.75 21.5 C12.56664062 21.36078125 12.56664062 21.36078125 11.359375 21.21875 C8.73109603 20.93845381 8.73109603 20.93845381 5 21 C4.731875 19.865625 4.46375 18.73125 4.1875 17.5625 C3.795625 16.386875 3.40375 15.21125 3 14 C2.01 13.67 1.02 13.34 0 13 C0.185625 11.96875 0.37125 10.9375 0.5625 9.875 C0.97307082 6.23851558 0.778309 3.54562991 0 0 Z " fill="#FCC09E" transform="translate(420,219)"/>
<path d="M0 0 C0 2.64 0 5.28 0 8 C0.99 8 1.98 8 3 8 C2.67 9.65 2.34 11.3 2 13 C1.01 13 0.02 13 -1 13 C-0.67 15.31 -0.34 17.62 0 20 C-3.06463399 20.16240455 -6.12064274 20.28104814 -9.1875 20.375 C-10.05181641 20.42527344 -10.91613281 20.47554688 -11.80664062 20.52734375 C-18.10065332 20.6720337 -18.10065332 20.6720337 -20.72900391 18.70800781 C-22.57051304 16.57094784 -24 14.90245792 -24 12 C-15.75 12 -7.5 12 1 12 C1 11.01 1 10.02 1 9 C-6.59 9 -14.18 9 -22 9 C-22 6 -22 6 -20 3.375 C-14.33903438 -1.10659779 -6.93457473 -0.14447031 0 0 Z " fill="#86464D" transform="translate(222,244)"/>
<path d="M0 0 C1.55074219 0.07154297 1.55074219 0.07154297 3.1328125 0.14453125 C5.63035743 0.26015833 8.12772757 0.37865412 10.625 0.5 C10.625 1.49 10.625 2.48 10.625 3.5 C-19.07069364 4.74342963 -48.6702543 4.26955572 -78.375 3.5 C-78.375 2.51 -78.375 1.52 -78.375 0.5 C-71.22578695 0.35562538 -64.07653225 0.21346151 -56.92724609 0.07275391 C-54.50080394 0.02474702 -52.07437134 -0.02374524 -49.64794922 -0.07275391 C-15.60183655 -0.7595631 -15.60183655 -0.7595631 0 0 Z " fill="#0F0001" transform="translate(212.375,252.5)"/>
<path d="M0 0 C0.66 0.33 1.32 0.66 2 1 C5.5232925 13.76139916 6.21022454 26.82592877 6 40 C8.64 40 11.28 40 14 40 C14 34.72 14 29.44 14 24 C14.33 24 14.66 24 15 24 C15 29.28 15 34.56 15 40 C17.64 40 20.28 40 23 40 C23 34.06 23 28.12 23 22 C23.33 22 23.66 22 24 22 C24 28.27 24 34.54 24 41 C6.84 41 -10.32 41 -28 41 C-28 41.99 -28 42.98 -28 44 C-23.05 44 -18.1 44 -13 44 C-12.92588482 49.48452296 -12.86505751 54.60902318 -14 60 C-14.33 60 -14.66 60 -15 60 C-15 55.05 -15 50.1 -15 45 C-19.95 45 -24.9 45 -30 45 C-30.33 43.35 -30.66 41.7 -31 40 C-30 39 -30 39 -26.40234375 38.90234375 C-24.91403133 38.9090178 -23.42573568 38.92097817 -21.9375 38.9375 C-20.79958008 38.94426758 -20.79958008 38.94426758 -19.63867188 38.95117188 C-17.75908129 38.9629932 -15.87953101 38.98092922 -14 39 C-14 36.03 -14 33.06 -14 30 C-12.0044484 33.99110319 -11.80453935 35.69986566 -12 40 C-9.36 40 -6.72 40 -4 40 C-4.33 32.74 -4.66 25.48 -5 18 C-4.67 18 -4.34 18 -4 18 C-3.07907719 22.65537356 -2.87794003 27.14685433 -2.9375 31.875 C-2.94201172 32.56335938 -2.94652344 33.25171875 -2.95117188 33.9609375 C-2.96283664 35.64066335 -2.98076729 37.32034375 -3 39 C-0.36 39 2.28 39 5 39 C4.90912109 38.09290283 4.90912109 38.09290283 4.81640625 37.16748047 C4.54123658 34.40361276 4.27058164 31.63932049 4 28.875 C3.90460938 27.92367187 3.80921875 26.97234375 3.7109375 25.9921875 C3.25562723 21.30899618 2.87306754 16.7123674 3 12 C2.34 12 1.68 12 1 12 C0.67 8.04 0.34 4.08 0 0 Z " fill="#B6292A" transform="translate(162,212)"/>
<path d="M0 0 C2.27733832 3.41600748 2.62779248 5.96091086 3.2421875 9.94140625 C3.49226563 10.62074219 3.74234375 11.30007813 4 12 C4.99386719 12.38478516 4.99386719 12.38478516 6.0078125 12.77734375 C8 14 8 14 8.48388672 15.89672852 C8.7259963 17.92400754 8.86855167 19.96255095 9 22 C9.87285645 21.99476318 10.74571289 21.98952637 11.64501953 21.98413086 C27.76772615 21.90093727 43.88266915 21.90899246 60 22.375 C61.92030029 22.4212854 61.92030029 22.4212854 63.87939453 22.46850586 C65.05356934 22.5072583 66.22774414 22.54601074 67.4375 22.5859375 C68.46746094 22.6173584 69.49742187 22.6487793 70.55859375 22.68115234 C73 23 73 23 75 25 C67.98547426 25.83352076 61.08412231 26.14783571 54.0234375 26.1328125 C53.01334625 26.13376923 52.003255 26.13472595 50.96255493 26.13571167 C48.84320004 26.13638756 46.72384301 26.13457487 44.60449219 26.13037109 C41.37690559 26.12500317 38.14945741 26.13034207 34.921875 26.13671875 C32.8515622 26.13605808 30.78124948 26.13477715 28.7109375 26.1328125 C27.2778273 26.13584885 27.2778273 26.13584885 25.81576538 26.13894653 C20.45192623 26.12032767 15.30767104 25.78358375 10 25 C10 24.34 10 23.68 10 23 C9.34 23 8.68 23 8 23 C7.67 20.36 7.34 17.72 7 15 C5.35 14.67 3.7 14.34 2 14 C1.66179834 12.4176994 1.32964061 10.83410625 1 9.25 C0.814375 8.36828125 0.62875 7.4865625 0.4375 6.578125 C0 4 0 4 0 0 Z " fill="#055E6E" transform="translate(483,344)"/>
<path d="M0 0 C4.89938134 0.4803315 7.83674525 1.50204715 12 4 C15.69523952 4.71923208 15.69523952 4.71923208 19 5 C19 5.66 19 6.32 19 7 C12.47128133 7.02548678 5.94257563 7.04292407 -0.58618164 7.05493164 C-2.80428548 7.05994084 -5.02238604 7.06675005 -7.24047852 7.07543945 C-10.44027517 7.08765516 -13.64002792 7.0932626 -16.83984375 7.09765625 C-17.82145981 7.10281754 -18.80307587 7.10797882 -19.81443787 7.11329651 C-25.62584479 7.11376332 -31.23580744 6.74869737 -37 6 C-34.17158739 3.17158739 -32.22844132 3.70085154 -28.26953125 3.62109375 C-27.60088547 3.60409927 -26.93223969 3.5871048 -26.24333191 3.56959534 C-24.09981816 3.51642046 -21.95631973 3.47621621 -19.8125 3.4375 C-17.68664097 3.3933169 -15.56091891 3.34628095 -13.43522644 3.29469299 C-11.49316296 3.24844267 -9.55090051 3.21078335 -7.60864258 3.17358398 C-4.01745523 3.00083964 -0.54857846 2.56609566 3 2 C2.01 1.34 1.02 0.68 0 0 Z " fill="#0A7586" transform="translate(101,363)"/>
<path d="M0 0 C0.33 0 0.66 0 1 0 C0.86177801 3.14621682 0.71314916 6.29185566 0.5625 9.4375 C0.50352539 10.78424805 0.50352539 10.78424805 0.44335938 12.15820312 C0.40146484 13.01220703 0.35957031 13.86621094 0.31640625 14.74609375 C0.27974854 15.53685303 0.24309082 16.3276123 0.20532227 17.14233398 C0 19 0 19 -1 20 C-1.09868509 21.65191396 -1.12798837 23.30803217 -1.12939453 24.96289062 C-1.13254669 26.02068726 -1.13569885 27.07848389 -1.13894653 28.16833496 C-1.1369223 29.31934692 -1.13489807 30.47035889 -1.1328125 31.65625 C-1.13376923 32.82885376 -1.13472595 34.00145752 -1.13571167 35.20959473 C-1.1363937 37.69458062 -1.13453784 40.17956829 -1.13037109 42.66455078 C-1.12502319 46.48343887 -1.13031536 50.30220935 -1.13671875 54.12109375 C-1.13605797 56.52864609 -1.13477682 58.93619837 -1.1328125 61.34375 C-1.13483673 62.49476196 -1.13686096 63.64577393 -1.13894653 64.83166504 C-1.13421829 66.41835999 -1.13421829 66.41835999 -1.12939453 68.03710938 C-1.12859894 68.97341187 -1.12780334 69.90971436 -1.12698364 70.87438965 C-1.23689643 72.9843306 -1.23689643 72.9843306 0 74 C0.15620555 75.41327947 0.25056173 76.8335459 0.31640625 78.25390625 C0.35830078 79.10791016 0.40019531 79.96191406 0.44335938 80.84179688 C0.50233398 82.18854492 0.50233398 82.18854492 0.5625 83.5625 C0.60568359 84.46419922 0.64886719 85.36589844 0.69335938 86.29492188 C0.79978142 88.52978485 0.90179988 90.76476308 1 93 C-5.88530913 80.87834511 -4.49700558 64.14008137 -4.44604492 50.72973633 C-4.43755746 47.33547773 -4.46635852 43.94292079 -4.49804688 40.54882812 C-4.5403049 26.58350281 -3.18630313 13.59857346 0 0 Z " fill="#695962" transform="translate(61,205)"/>
<path d="M0 0 C0.66 1.32 1.32 2.64 2 4 C2.66 4 3.32 4 4 4 C5.68762851 5.6454378 7.3540349 7.31288577 9 9 C9.66 9.33 10.32 9.66 11 10 C11 10.99 11 11.98 11 13 C11.86625 13.103125 12.7325 13.20625 13.625 13.3125 C17 14 17 14 19.71875 15.5 C23.47958369 17.21923826 26.81225302 17.54971304 30.875 17.6875 C31.56335938 17.72166016 32.25171875 17.75582031 32.9609375 17.79101562 C34.64008613 17.87264091 36.32001168 17.9380157 38 18 C38 18.33 38 18.66 38 19 C35.31243045 19.02720824 32.62514202 19.0469388 29.9375 19.0625 C29.18533203 19.07087891 28.43316406 19.07925781 27.65820312 19.08789062 C15.40468152 19.14093617 15.40468152 19.14093617 10.0625 16.125 C7.38568793 14.67807456 4.83065067 13.56331914 1.9375 12.625 C-2.52143682 11.04450556 -5.63389616 8.25039402 -9 5 C-6.39902318 3.69951159 -3.86044938 3.43528578 -1 3 C-0.67 2.01 -0.34 1.02 0 0 Z " fill="#A61415" transform="translate(99,350)"/>
<path d="M0 0 C0.50367757 1.45706726 1.00282556 2.91570096 1.5 4.375 C1.7784375 5.18710937 2.056875 5.99921875 2.34375 6.8359375 C3 9 3 9 3 11 C2.01 11 1.02 11 0 11 C0.20625 11.598125 0.4125 12.19625 0.625 12.8125 C1 15 1 15 -1 18 C-3.875 17.375 -3.875 17.375 -7 16 C-8.375 12.875 -8.375 12.875 -9 10 C-10.98 10.99 -10.98 10.99 -13 12 C-11.22549493 3.93867697 -11.22549493 3.93867697 -8.34765625 1.734375 C-5.50172205 0.50695306 -3.09517408 0 0 0 Z " fill="#E5B89E" transform="translate(493,262)"/>
<path d="M0 0 C2.31 0 4.62 0 7 0 C7.33 0.99 7.66 1.98 8 3 C8.66 3.33 9.32 3.66 10 4 C10.625 6.5625 10.625 6.5625 11 9 C13.31 9 15.62 9 18 9 C18 9.66 18 10.32 18 11 C17.01 11.33 16.02 11.66 15 12 C14.34 11.67 13.68 11.34 13 11 C13 11.99 13 12.98 13 14 C11.45338876 16.01059461 10.3282833 16.88062426 7.9375 17.75 C6 18 6 18 4 17 C3.67 16.01 3.34 15.02 3 14 C2.01 13.67 1.02 13.34 0 13 C0.185625 11.96875 0.37125 10.9375 0.5625 9.875 C0.97307082 6.23851558 0.778309 3.54562991 0 0 Z " fill="#F9C3A2" transform="translate(420,219)"/>
<path d="M0 0 C7.26 0 14.52 0 22 0 C22 2.31 22 4.62 22 7 C19.62374823 7.10883596 17.25256024 7.18766696 14.875 7.25 C14.20984375 7.28351563 13.5446875 7.31703125 12.859375 7.3515625 C7.73781525 7.45198524 4.88985035 6.28686443 1 3 C0.67 2.01 0.34 1.02 0 0 Z " fill="#E9080A" transform="translate(198,256)"/>
<path d="M0 0 C2.63970074 2.79968261 2.36528982 4.09773954 2.375 7.875 C2.29455586 9.64706945 2.19763292 11.4187602 2.0625 13.1875 C1.63839844 12.6925 1.21429688 12.1975 0.77734375 11.6875 C-0.98900651 9.81030128 -0.98900651 9.81030128 -4.375 10.1875 C-7.9375 10.1875 -7.9375 10.1875 -10.375 9.125 C-12.70393994 6.23711448 -12.20800795 3.77173038 -11.9375 0.1875 C-8.0572742 -1.7526129 -4.06744601 -1.12503826 0 0 Z " fill="#F6C6A9" transform="translate(408.9375,267.8125)"/>
<path d="M0 0 C0.33 0 0.66 0 1 0 C1.27760319 4.81178856 0.91731832 8.61994127 -0.4375 13.25 C-1.84403282 18.53724939 -2.36307776 23.53441422 -2.59375 28.96875 C-2.6334642 29.83280457 -2.67317841 30.69685913 -2.71409607 31.58709717 C-3.15322092 42.13904883 -3.10893341 52.69121795 -3.0625 63.25 C-3.05746574 65.27864471 -3.0529063 67.30729065 -3.04882812 69.3359375 C-3.03799626 74.22398984 -3.02084238 79.11198052 -3 84 C-3.33 84 -3.66 84 -4 84 C-4.91487007 77.78260842 -5.14633869 71.7441912 -5.1328125 65.46484375 C-5.13376923 64.46852432 -5.13472595 63.4722049 -5.13571167 62.44569397 C-5.13638939 60.34375953 -5.13456367 58.24182295 -5.13037109 56.13989258 C-5.12505697 52.97146728 -5.13030943 49.80318633 -5.13671875 46.63476562 C-5.14542337 23.31485532 -5.14542337 23.31485532 -4 14 C-3.67 13.67 -3.34 13.34 -3 13 C-2.71612221 10.77854367 -2.55234827 8.55682352 -2.37890625 6.32421875 C-1.98034823 3.87945563 -1.21258013 2.14533408 0 0 Z " fill="#D60605" transform="translate(79,200)"/>
<path d="M0 0 C3.3 0 6.6 0 10 0 C10.29366149 11.82803234 9.4286661 23.26452843 8 35 C7.67 35 7.34 35 7 35 C7 23.78 7 12.56 7 1 C5.02 1 3.04 1 1 1 C1.03480469 2.19753906 1.06960937 3.39507812 1.10546875 4.62890625 C1.31477846 15.20231721 0.58032415 24.72478063 -2 35 C-2.33 35 -2.66 35 -3 35 C-3.15251738 30.72951329 -3.13664773 27.515735 -2.03125 23.34375 C-0.77862947 18.58223594 -0.55576239 13.90317986 -0.375 9 C-0.33632812 8.12988281 -0.29765625 7.25976562 -0.2578125 6.36328125 C-0.16459113 4.24249514 -0.08125864 2.12127815 0 0 Z " fill="#C43A3D" transform="translate(176,256)"/>
<path d="M0 0 C0 0.66 0 1.32 0 2 C-3.3 2.33 -6.6 2.66 -10 3 C-10.33 3.99 -10.66 4.98 -11 6 C0.55 6 12.1 6 24 6 C24 6.66 24 7.32 24 8 C26.64 8 29.28 8 32 8 C32 8.33 32 8.66 32 9 C17.81 9 3.62 9 -11 9 C-13 5 -13 5 -12.40625 2.796875 C-11 1 -11 1 -8.90625 0.390625 C-8.1121875 0.34421875 -7.318125 0.2978125 -6.5 0.25 C-5.7059375 0.19328125 -4.911875 0.1365625 -4.09375 0.078125 C-2.72986733 0.02723386 -1.3648318 0 0 0 Z " fill="#064450" transform="translate(469,361)"/>
<path d="M0 0 C11.22 0 22.44 0 34 0 C34 0.99 34 1.98 34 3 C22.78 3 11.56 3 0 3 C0 2.01 0 1.02 0 0 Z " fill="#170000" transform="translate(134,253)"/>
<path d="M0 0 C1.48831242 0.00667405 2.97660807 0.01863442 4.46484375 0.03515625 C5.22345703 0.03966797 5.98207031 0.04417969 6.76367188 0.04882812 C8.64326246 0.06064945 10.52281274 0.07858547 12.40234375 0.09765625 C12.07234375 2.07765625 11.74234375 4.05765625 11.40234375 6.09765625 C5.79234375 6.09765625 0.18234375 6.09765625 -5.59765625 6.09765625 C-4.40202306 0.11949031 -4.40202306 0.11949031 0 0 Z " fill="#FB0101" transform="translate(208.59765625,245.90234375)"/>
<path d="M0 0 C0.33 0 0.66 0 1 0 C1 2.64 1 5.28 1 8 C0.34 8 -0.32 8 -1 8 C-0.93064163 12.41134531 -0.8424493 16.82181207 -0.73754883 21.23242188 C-0.70450134 22.72971472 -0.67640798 24.2271261 -0.65356445 25.72460938 C-0.52931793 33.65523851 -0.40655848 40.67952326 3 48 C3.1875 51 3.1875 51 3 53 C3.66 53 4.32 53 5 53 C4.67 54.32 4.34 55.64 4 57 C-4.31869811 40.27815 -6.23784593 19.76639245 -0.65625 1.78125 C-0.4396875 1.1934375 -0.223125 0.605625 0 0 Z " fill="#E11E20" transform="translate(118,226)"/>
<path d="M0 0 C0.66 0 1.32 0 2 0 C1.85997559 0.70890381 1.71995117 1.41780762 1.57568359 2.14819336 C0.13273839 9.99763667 -0.3855234 17.58853527 -0.375 25.5625 C-0.37411377 26.78106689 -0.37322754 27.99963379 -0.37231445 29.25512695 C-0.1948588 42.92822006 2.55838599 55.14683379 7 68 C1.22433901 62.48233808 0.60717456 54.65039951 0 47 C-0.66 47 -1.32 47 -2 47 C-2.02464775 41.46411467 -2.04283496 35.928261 -2.05493164 30.39233398 C-2.05997244 28.5075627 -2.06680498 26.62279535 -2.07543945 24.73803711 C-2.08751617 22.03498364 -2.09323068 19.33198169 -2.09765625 16.62890625 C-2.10281754 15.78099014 -2.10797882 14.93307404 -2.11329651 14.0594635 C-2.11349195 12.03928932 -2.06206211 10.01922066 -2 8 C-1.67 7.67 -1.34 7.34 -1 7 C-0.63239269 4.67182036 -0.29758419 2.3381615 0 0 Z " fill="#E22221" transform="translate(107,228)"/>
<path d="M0 0 C3.15225467 1.67513703 5.11518049 3.41259812 7.30078125 6.22265625 C5.32078125 5.89265625 3.34078125 5.56265625 1.30078125 5.22265625 C1.30078125 4.56265625 1.30078125 3.90265625 1.30078125 3.22265625 C-7.05339646 0.40331993 -14.61217506 -0.15698704 -23.38671875 0.03515625 C-24.57716797 0.04869141 -25.76761719 0.06222656 -26.99414062 0.07617188 C-29.89632613 0.11113797 -32.79751684 0.16020929 -35.69921875 0.22265625 C-26.40298806 -5.97483088 -9.90008127 -3.90682132 0 0 Z " fill="#A5383F" transform="translate(143.69921875,137.77734375)"/>
<path d="M0 0 C0.88336837 2.4667645 1.1312406 3.63859372 0.22265625 6.140625 C-0.35162109 7.18476563 -0.35162109 7.18476563 -0.9375 8.25 C-1.50791016 9.30960937 -1.50791016 9.30960937 -2.08984375 10.390625 C-2.39019531 10.92171875 -2.69054687 11.4528125 -3 12 C-3.66 12 -4.32 12 -5 12 C-5.12375 12.639375 -5.2475 13.27875 -5.375 13.9375 C-5.58125 14.618125 -5.7875 15.29875 -6 16 C-6.66 16.33 -7.32 16.66 -8 17 C-8.6496875 18.11375 -8.6496875 18.11375 -9.3125 19.25 C-11.23975609 22.39071363 -13.16709634 24.63924695 -16 27 C-18.75 27.25 -18.75 27.25 -21 27 C-21.33 27.33 -21.66 27.66 -22 28 C-24.01964199 28.07244053 -26.04167124 28.08377188 -28.0625 28.0625 C-29.16722656 28.05347656 -30.27195313 28.04445313 -31.41015625 28.03515625 C-32.69212891 28.01775391 -32.69212891 28.01775391 -34 28 C-34 27.67 -34 27.34 -34 27 C-33.2265625 26.91363281 -32.453125 26.82726562 -31.65625 26.73828125 C-20.95898335 25.29520939 -15.24629665 21.98818485 -8.34765625 13.76953125 C-6.93998818 12.03509101 -6.93998818 12.03509101 -6 10 C-5.34 10 -4.68 10 -4 10 C-3.71125 9.0925 -3.4225 8.185 -3.125 7.25 C-2.23468224 4.67797092 -1.28505587 2.38653234 0 0 Z " fill="#E82628" transform="translate(162,321)"/>
<path d="M0 0 C0.66 0.33 1.32 0.66 2 1 C5.5232925 13.76139916 6.21022454 26.82592877 6 40 C2.7 40 -0.6 40 -4 40 C-4.33 32.74 -4.66 25.48 -5 18 C-4.67 18 -4.34 18 -4 18 C-3.07907719 22.65537356 -2.87794003 27.14685433 -2.9375 31.875 C-2.94201172 32.56335938 -2.94652344 33.25171875 -2.95117188 33.9609375 C-2.96283664 35.64066335 -2.98076729 37.32034375 -3 39 C-0.36 39 2.28 39 5 39 C4.93941406 38.39526855 4.87882813 37.79053711 4.81640625 37.16748047 C4.54123658 34.40361276 4.27058164 31.63932049 4 28.875 C3.90460938 27.92367187 3.80921875 26.97234375 3.7109375 25.9921875 C3.25562723 21.30899618 2.87306754 16.7123674 3 12 C2.34 12 1.68 12 1 12 C0.67 8.04 0.34 4.08 0 0 Z " fill="#D81B1D" transform="translate(162,212)"/>
<path d="M0 0 C2.97 0 5.94 0 9 0 C9 1.98 9 3.96 9 6 C8.67 6 8.34 6 8 6 C8 4.35 8 2.7 8 1 C6.02 1 4.04 1 2 1 C2.04125 2.0725 2.0825 3.145 2.125 4.25 C2.11106153 12.06948158 1.22012686 19.34644933 -3 26 C-3.4125 27.2375 -3.825 28.475 -4.25 29.75 C-4.8275 30.8225 -5.405 31.895 -6 33 C-9.6875 33.9375 -9.6875 33.9375 -13 34 C-11.88625 32.9790625 -11.88625 32.9790625 -10.75 31.9375 C-2.29599742 23.34020924 -0.85012442 11.56169212 0 0 Z " fill="#F6BEBC" transform="translate(149,256)"/>
<path d="M0 0 C0.33 0 0.66 0 1 0 C1.01030746 0.63671127 1.02061493 1.27342255 1.03123474 1.9294281 C1.13906331 8.53126798 1.25367961 15.13296478 1.37231445 21.73461914 C1.41573943 24.20138569 1.45740872 26.66818378 1.49731445 29.13500977 C1.55483445 32.67213466 1.61858075 36.20909966 1.68359375 39.74609375 C1.70030624 40.85649521 1.71701874 41.96689667 1.73423767 43.11094666 C1.75418289 44.13192947 1.77412811 45.15291229 1.79467773 46.20483398 C1.81022202 47.10862289 1.8257663 48.0124118 1.84178162 48.94358826 C1.77501457 50.99194101 1.77501457 50.99194101 3 52 C3.15620555 53.41327947 3.25056173 54.8335459 3.31640625 56.25390625 C3.35830078 57.10791016 3.40019531 57.96191406 3.44335938 58.84179688 C3.48267578 59.73962891 3.52199219 60.63746094 3.5625 61.5625 C3.62727539 62.91504883 3.62727539 62.91504883 3.69335938 64.29492188 C3.79978142 66.52978485 3.90179988 68.76476308 4 71 C-0.97873885 62.28218566 -0.28555749 50.65786831 -0.1953125 40.91796875 C-0.1924826 39.73777664 -0.18965271 38.55758453 -0.18673706 37.34162903 C-0.17566622 33.62347671 -0.15058698 29.90557779 -0.125 26.1875 C-0.11495325 23.6451858 -0.10583039 21.10286778 -0.09765625 18.56054688 C-0.07577 12.37361349 -0.04242592 6.18682486 0 0 Z " fill="#853138" transform="translate(58,227)"/>
<path d="M0 0 C2.64 0 5.28 0 8 0 C5.21143737 3.57284587 2.3905455 6.61934346 -1.0625 9.5625 C-5.69558822 13.52500966 -8.96390897 17.71984169 -12 23 C-13 24.66666667 -14 26.33333333 -15 28 C-15.66 27.01 -16.32 26.02 -17 25 C-16.505 24.566875 -16.01 24.13375 -15.5 23.6875 C-13.66781808 22.00259517 -13.66781808 22.00259517 -14 19 C-12.5738971 17.77288821 -11.14099023 16.55216172 -9.6640625 15.38671875 C-5.47335753 11.89446461 -2.78830824 8.5181577 -2 3 C-1.34 2.67 -0.68 2.34 0 2 C0 1.34 0 0.68 0 0 Z " fill="#CA0707" transform="translate(108,138)"/>
<path d="M0 0 C8.25 0 16.5 0 25 0 C25 0.99 25 1.98 25 3 C16.75 3 8.5 3 0 3 C0 2.01 0 1.02 0 0 Z " fill="#230000" transform="translate(198,253)"/>
<path d="M0 0 C4.89938134 0.4803315 7.83674525 1.50204715 12 4 C15.69523952 4.71923208 15.69523952 4.71923208 19 5 C19 5.33 19 5.66 19 6 C8.77 6 -1.46 6 -12 6 C-12 5.67 -12 5.34 -12 5 C-10.865625 4.855625 -9.73125 4.71125 -8.5625 4.5625 C-5.19222799 4.38828522 -5.19222799 4.38828522 -4 3 C-1.67182036 2.63239269 0.6618385 2.29758419 3 2 C2.01 1.34 1.02 0.68 0 0 Z " fill="#065162" transform="translate(101,363)"/>
<path d="M0 0 C2.27733832 3.41600748 2.62779248 5.96091086 3.2421875 9.94140625 C3.49226563 10.62074219 3.74234375 11.30007813 4 12 C4.99386719 12.38478516 4.99386719 12.38478516 6.0078125 12.77734375 C6.66523438 13.18082031 7.32265625 13.58429688 8 14 C8.33 16.64 8.66 19.28 9 22 C20.22 22 31.44 22 43 22 C43 22.33 43 22.66 43 23 C31.45 23 19.9 23 8 23 C7.67 20.36 7.34 17.72 7 15 C5.35 14.67 3.7 14.34 2 14 C1.66179834 12.4176994 1.32964061 10.83410625 1 9.25 C0.814375 8.36828125 0.62875 7.4865625 0.4375 6.578125 C0 4 0 4 0 0 Z " fill="#1C869A" transform="translate(483,344)"/>
<path d="M0 0 C0.33 0 0.66 0 1 0 C1 1.98 1 3.96 1 6 C0.34 6 -0.32 6 -1 6 C-1 6.99 -1 7.98 -1 9 C-1.99 9 -2.98 9 -4 9 C-3.95230469 9.70640625 -3.90460938 10.4128125 -3.85546875 11.140625 C-4.02450473 14.48479628 -4.94522135 16.70084762 -6.3125 19.75 C-8.24191578 24.17021524 -9.92387359 28.54674917 -11.32421875 33.16015625 C-12 35 -12 35 -14 38 C-13.47064235 32.15745996 -12.24333055 27.30354222 -10.0625 21.875 C-9.53157125 20.51861268 -9.00160731 19.16184728 -8.47265625 17.8046875 C-8.2214502 17.16499023 -7.97024414 16.52529297 -7.71142578 15.86621094 C-6.72233808 13.27163771 -5.85195387 10.64229171 -5 8 C-4.34 8 -3.68 8 -3 8 C-2.87625 7.236875 -2.7525 6.47375 -2.625 5.6875 C-2 3 -2 3 0 0 Z " fill="#7D5D66" transform="translate(76,167)"/>
<path d="M0 0 C0.66 0.33 1.32 0.66 2 1 C2.28912012 3.44410827 2.46780471 5.79716103 2.5625 8.25 C2.75845213 12.57762362 3.00725493 16.76647557 4 21 C0.40641153 17.77498471 -1.52662449 15.85209899 -2 11 C-2.2475 10.01 -2.495 9.02 -2.75 8 C-3.05488629 4.34136451 -2.13681976 2.90607488 0 0 Z " fill="#CAC9C9" transform="translate(440,233)"/>
<path d="M0 0 C1.485 0.99 1.485 0.99 3 2 C3 2.66 3 3.32 3 4 C3.66 4 4.32 4 5 4 C5 5.32 5 6.64 5 8 C5.66 8 6.32 8 7 8 C7.33 9.32 7.66 10.64 8 12 C9.32 11.67 10.64 11.34 12 11 C12 14 12 14 11 16 C12.32 16.33 13.64 16.66 15 17 C15.33 18.98 15.66 20.96 16 23 C11.99215825 20.02274613 8.9670071 16.98426667 6 13 C6 12.01 6 11.02 6 10 C5.34 10 4.68 10 4 10 C0 3.375 0 3.375 0 0 Z " fill="#913B40" transform="translate(74,331)"/>
<path d="M0 0 C3.15111212 2.52952288 3.58798017 4.76756266 4.1875 8.6875 C4.42533203 10.17830078 4.42533203 10.17830078 4.66796875 11.69921875 C4.77753906 12.45847656 4.88710937 13.21773438 5 14 C5.66 14 6.32 14 7 14 C7 15.98 7 17.96 7 20 C7.66 20 8.32 20 9 20 C9.53154742 21.60064843 10.04988353 23.20568874 10.5625 24.8125 C10.85253906 25.70582031 11.14257812 26.59914063 11.44140625 27.51953125 C12 30 12 30 11 33 C7.91899491 27.27639371 5.41974953 21.72844828 3.69140625 15.45703125 C2.79002597 12.25382111 1.67694372 9.13796665 0.55078125 6.0078125 C0 4 0 4 0 0 Z " fill="#875159" transform="translate(62,298)"/>
<path d="M0 0 C2.9375 1.4375 2.9375 1.4375 5 3 C5 3.33 5 3.66 5 4 C3.02 4 1.04 4 -1 4 C-1 3.34 -1 2.68 -1 2 C-2.65 2.33 -4.3 2.66 -6 3 C-6 4.65 -6 6.3 -6 8 C-2.7 8.33 0.6 8.66 4 9 C4.33 10.65 4.66 12.3 5 14 C4.649375 13.505 4.29875 13.01 3.9375 12.5 C1.95536237 10.64927577 1.95536237 10.64927577 -1.4375 11 C-5 11 -5 11 -7.4375 9.9375 C-9.76643994 7.04961448 -9.27050795 4.58423038 -9 1 C-5.93570224 -0.53214888 -3.3834358 -0.22938548 0 0 Z " fill="#A2C5C0" transform="translate(406,267)"/>
<path d="M0 0 C2.31 0 4.62 0 7 0 C6.41196203 3.02419525 5.77321882 6.01758453 5 9 C4.34 9 3.68 9 3 9 C3 9.99 3 10.98 3 12 C3.66 12 4.32 12 5 12 C5 13.65 5 15.3 5 17 C4.34 16.01 3.68 15.02 3 14 C2.01 13.67 1.02 13.34 0 13 C0.185625 11.96875 0.37125 10.9375 0.5625 9.875 C0.97307082 6.23851558 0.778309 3.54562991 0 0 Z " fill="#C3C1B2" transform="translate(420,219)"/>
<path d="M0 0 C0.33 0 0.66 0 1 0 C2.97003514 10.44822209 4.50892859 20.33134877 4 31 C3.67 31 3.34 31 3 31 C0.6802673 20.49216319 -0.4179602 10.77408509 0 0 Z " fill="#A43F47" transform="translate(181,202)"/>
<path d="M0 0 C0.75 1.625 0.75 1.625 1 4 C-0.73900959 7.15598036 -2.2396126 9.45686614 -5.1875 11.5625 C-7.26071371 12.91760068 -7.26071371 12.91760068 -7.75 15.6875 C-7.8325 16.450625 -7.915 17.21375 -8 18 C-8.66 18 -9.32 18 -10 18 C-10.33 18.99 -10.66 19.98 -11 21 C-11.33 20.34 -11.66 19.68 -12 19 C-9.03261319 12.23435807 -5.25917364 5.25917364 0 0 Z " fill="#E72A2C" transform="translate(117,181)"/>
<path d="M0 0 C9.57142857 -0.28571429 9.57142857 -0.28571429 14 2 C14 2.66 14 3.32 14 4 C9.71 3.34 5.42 2.68 1 2 C1.33 4.97 1.66 7.94 2 11 C-1.22791555 13.1519437 -2.28400809 13.20086443 -6 13 C-5.34 12.34 -4.68 11.68 -4 11 C-2.68 11 -1.36 11 0 11 C0 7.37 0 3.74 0 0 Z " fill="#0E4A55" transform="translate(534,305)"/>
<path d="M0 0 C0.50367757 1.45706726 1.00282556 2.91570096 1.5 4.375 C1.91765625 5.59316406 1.91765625 5.59316406 2.34375 6.8359375 C3 9 3 9 3 11 C1.68 11.33 0.36 11.66 -1 12 C-1 11.01 -1 10.02 -1 9 C-0.34 9 0.32 9 1 9 C0.67 8.01 0.34 7.02 0 6 C-1.98 6.99 -1.98 6.99 -4 8 C-6 5 -6 5 -5.75 2.875 C-4.52320096 -0.19199761 -3.19812962 0 0 0 Z " fill="#FBC29F" transform="translate(493,262)"/>
<path d="M0 0 C4.36641651 -0.34931332 7.87679621 -0.38041688 11.5078125 2.328125 C14.96722052 6.20411095 17.29778097 11.12516262 19 16 C18.66015625 18.375 18.66015625 18.375 18 20 C17.54625 18.865625 17.0925 17.73125 16.625 16.5625 C15.42904194 12.95278308 15.42904194 12.95278308 13 12 C12.690625 10.865625 12.38125 9.73125 12.0625 8.5625 C11.34378643 4.76783002 11.34378643 4.76783002 8 3 C5.72087062 2.54605448 5.72087062 2.54605448 3.3125 2.375 C2.50425781 2.30023438 1.69601563 2.22546875 0.86328125 2.1484375 C0.24839844 2.09945312 -0.36648437 2.05046875 -1 2 C-0.67 1.34 -0.34 0.68 0 0 Z " fill="#E32427" transform="translate(127,215)"/>
<path d="M0 0 C-3.9619274 2.64128493 -8.18049487 4.29187738 -12.5625 6.125 C-13.43841797 6.49753906 -14.31433594 6.87007813 -15.21679688 7.25390625 C-16.47266602 7.78177734 -16.47266602 7.78177734 -17.75390625 8.3203125 C-18.52033447 8.64273926 -19.2867627 8.96516602 -20.07641602 9.29736328 C-22 10 -22 10 -24 10 C-23 7 -23 7 -20.9609375 5.9375 C-19.68089844 5.4734375 -19.68089844 5.4734375 -18.375 5 C-15.2671019 3.84892663 -12.24271587 2.67254656 -9.25 1.25 C-5.90380455 -0.03699825 -3.5487006 -0.25966102 0 0 Z " fill="#104557" transform="translate(524,320)"/>
<path d="M0 0 C1.48831242 0.00667405 2.97660807 0.01863442 4.46484375 0.03515625 C5.22345703 0.03966797 5.98207031 0.04417969 6.76367188 0.04882812 C8.64326246 0.06064945 10.52281274 0.07858547 12.40234375 0.09765625 C12.07234375 2.07765625 11.74234375 4.05765625 11.40234375 6.09765625 C5.79234375 6.09765625 0.18234375 6.09765625 -5.59765625 6.09765625 C-4.40202306 0.11949031 -4.40202306 0.11949031 0 0 Z M-1.59765625 1.09765625 C-3.08265625 3.07765625 -3.08265625 3.07765625 -4.59765625 5.09765625 C0.35234375 5.09765625 5.30234375 5.09765625 10.40234375 5.09765625 C10.40234375 3.77765625 10.40234375 2.45765625 10.40234375 1.09765625 C8.46606606 0.98958494 6.52806619 0.91203375 4.58984375 0.84765625 C3.51089844 0.80125 2.43195313 0.75484375 1.3203125 0.70703125 C0.35738281 0.8359375 -0.60554687 0.96484375 -1.59765625 1.09765625 Z " fill="#E10D0A" transform="translate(208.59765625,245.90234375)"/>
<path d="M0 0 C1.37478516 0.01740234 1.37478516 0.01740234 2.77734375 0.03515625 C3.69644531 0.04417969 4.61554688 0.05320312 5.5625 0.0625 C6.27277344 0.07410156 6.98304688 0.08570313 7.71484375 0.09765625 C7.71484375 1.74765625 7.71484375 3.39765625 7.71484375 5.09765625 C4.41484375 4.76765625 1.11484375 4.43765625 -2.28515625 4.09765625 C-2.61515625 3.10765625 -2.94515625 2.11765625 -3.28515625 1.09765625 C-2.28515625 0.09765625 -2.28515625 0.09765625 0 0 Z " fill="#F70302" transform="translate(206.28515625,256.90234375)"/>
<path d="M0 0 C0.66 0 1.32 0 2 0 C2.33 2.31 2.66 4.62 3 7 C3.66 7 4.32 7 5 7 C5.268125 7.70125 5.53625 8.4025 5.8125 9.125 C6.96823686 12.05482572 6.96823686 12.05482572 8.5625 14.9375 C10.01073597 18.02287228 10.59908864 20.63234459 11 24 C10.34 24 9.68 24 9 24 C8.68546875 23.23816406 8.3709375 22.47632813 8.046875 21.69140625 C5.69749672 16.02317732 3.31460149 10.39107114 0.69921875 4.83984375 C0 3 0 3 0 0 Z " fill="#D40605" transform="translate(84,320)"/>
<path d="M0 0 C1.98 0 3.96 0 6 0 C3 2 3 2 1.03125 2.8828125 C-1.39498334 4.21724084 -2.73543375 5.74949975 -4.5 7.875 C-5.40298828 8.93847656 -5.40298828 8.93847656 -6.32421875 10.0234375 C-6.87722656 10.67570313 -7.43023437 11.32796875 -8 12 C-10.3125 14.5 -10.3125 14.5 -12 16 C-12.66 16 -13.32 16 -14 16 C-12.64564617 12.87353147 -11.22498698 11.10708647 -8.5625 9 C-5.93802994 6.8546863 -4.00441676 4.74288609 -2 2 C-1.34 2 -0.68 2 0 2 C0 1.34 0 0.68 0 0 Z " fill="#E40404" transform="translate(116,137)"/>
<path d="M0 0 C2.97 0.495 2.97 0.495 6 1 C5.67 1.66 5.34 2.32 5 3 C8.95726161 5.20870416 11.50572688 6.12146684 16 6 C16.99 6.66 17.98 7.32 19 8 C18.67 8.99 18.34 9.98 18 11 C10.43782244 9.37289212 5.27097229 6.74212065 0 1 C0 0.67 0 0.34 0 0 Z " fill="#8D3F46" transform="translate(90,354)"/>
<path d="M0 0 C4.75 0.75 4.75 0.75 7 3 C6.01 3.33 5.02 3.66 4 4 C3.01 3.01 2.02 2.02 1 1 C0.690625 1.78375 0.38125 2.5675 0.0625 3.375 C-1.65381205 7.61530035 -2.93020107 8.81620545 -7 11 C-7.66 11 -8.32 11 -9 11 C-9.33 11.99 -9.66 12.98 -10 14 C-11.32 13.67 -12.64 13.34 -14 13 C-13.01 12.67 -12.02 12.34 -11 12 C-6.98455155 8.31012845 -3.4985467 4.17180654 0 0 Z " fill="#1C525B" transform="translate(531,287)"/>
<path d="M0 0 C1.32 0.33 2.64 0.66 4 1 C3.979375 1.9075 3.95875 2.815 3.9375 3.75 C3.9889755 6.42672588 4.2215017 8.46988052 5 11 C4.34 11 3.68 11 3 11 C2.67 12.65 2.34 14.3 2 16 C1.67 16 1.34 16 1 16 C-0.12862175 10.63904667 -0.09688221 5.44693314 0 0 Z " fill="#10343A" transform="translate(435,240)"/>
<path d="M0 0 C0.33 0.99 0.66 1.98 1 3 C0.67 3.33 0.34 3.66 0 4 C-0.29840567 5.51566447 -0.56345102 7.03794783 -0.8125 8.5625 C-1.76730786 13.62808367 -3.50407381 17.50733286 -6 22 C-7.0607354 18.78893024 -6.94904546 16.97982721 -5.8125 13.8125 C-5.5340625 13.03648437 -5.255625 12.26046875 -4.96875 11.4609375 C-3.44140047 7.58097699 -1.76014971 3.77940776 0 0 Z " fill="#DB0506" transform="translate(89,170)"/>
<path d="M0 0 C7.26 0 14.52 0 22 0 C21.67 1.32 21.34 2.64 21 4 C21 3.01 21 2.02 21 1 C16.05 1.33 11.1 1.66 6 2 C6 2.99 6 3.98 6 5 C4.125 4.75 4.125 4.75 2 4 C1.34 2.68 0.68 1.36 0 0 Z " fill="#B02427" transform="translate(198,256)"/>
<path d="M0 0 C3.12492251 -0.05791844 6.24970766 -0.09356746 9.375 -0.125 C10.26445312 -0.14175781 11.15390625 -0.15851563 12.0703125 -0.17578125 C12.92109375 -0.18222656 13.771875 -0.18867188 14.6484375 -0.1953125 C15.82672119 -0.21102295 15.82672119 -0.21102295 17.02880859 -0.22705078 C19 0 19 0 21 2 C13.81949816 2.71148265 7.12971149 3.25818438 0 2 C0 1.34 0 0.68 0 0 Z " fill="#015565" transform="translate(493,367)"/>
<path d="M0 0 C0.33 1.32 0.66 2.64 1 4 C7.27 4 13.54 4 20 4 C13.40177986 7.29911007 7.22644436 7.1285336 0 7 C0 4.69 0 2.38 0 0 Z " fill="#234C57" transform="translate(411,274)"/>
<path d="M0 0 C0.66 0.33 1.32 0.66 2 1 C1.49339844 2.54107422 1.49339844 2.54107422 0.9765625 4.11328125 C-1.58138766 12.01741413 -3.82860234 19.74776571 -5 28 C-5.33 28 -5.66 28 -6 28 C-5.65225943 18.50668235 -4.29913274 8.59826548 0 0 Z " fill="#FDCBCA" transform="translate(103,201)"/>
<path d="M0 0 C4.62 0 9.24 0 14 0 C13.01 0.495 13.01 0.495 12 1 C12 2.32 12 3.64 12 5 C8.04 5 4.08 5 0 5 C0 4.67 0 4.34 0 4 C2.64 4 5.28 4 8 4 C7.67 3.34 7.34 2.68 7 2 C4.67843403 1.59270772 2.3431213 1.25561323 0 1 C0 0.67 0 0.34 0 0 Z " fill="#072732" transform="translate(186,252)"/>
<path d="M0 0 C0.33 0.66 0.66 1.32 1 2 C-1.71428571 9.85714286 -1.71428571 9.85714286 -6 12 C-9.75 12.6875 -9.75 12.6875 -13 13 C-12.443125 12.608125 -11.88625 12.21625 -11.3125 11.8125 C-8.84937133 9.96406897 -8.84937133 9.96406897 -6.375 7.3125 C-4 5 -4 5 -2 5 C-1.34 3.35 -0.68 1.7 0 0 Z " fill="#E72123" transform="translate(147,296)"/>
<path d="M0 0 C1.875 0.25 1.875 0.25 4 1 C4.6837045 2.32467746 5.34964186 3.65863633 6 5 C8.0335948 6.26804566 8.0335948 6.26804566 10 7 C9.67 7.66 9.34 8.32 9 9 C8.484375 8.690625 7.96875 8.38125 7.4375 8.0625 C4.33334577 6.70940713 1.34884993 6.38640576 -2 6 C-2 5.34 -2 4.68 -2 4 C-1.34 4 -0.68 4 0 4 C0 2.68 0 1.36 0 0 Z " fill="#E1B899" transform="translate(433,222)"/>
<path d="M0 0 C0.99 0.495 0.99 0.495 2 1 C2.65117579 3.36872661 3.17515074 5.65458485 3.625 8.0625 C3.75688721 8.7419165 3.88877441 9.42133301 4.0246582 10.12133789 C4.89883819 14.84936891 5.29307021 19.2131865 5 24 C4.67 24 4.34 24 4 24 C3.67 20.04 3.34 16.08 3 12 C2.34 12 1.68 12 1 12 C0.67 8.04 0.34 4.08 0 0 Z " fill="#E73633" transform="translate(162,212)"/>
<path d="M0 0 C0.66 0 1.32 0 2 0 C1.22095672 11.52164009 1.22095672 11.52164009 -1 17 C-1.33 17 -1.66 17 -2 17 C-2 13.37 -2 9.74 -2 6 C-1.34 6 -0.68 6 0 6 C0 4.02 0 2.04 0 0 Z " fill="#AB454E" transform="translate(181,291)"/>
<path d="M0 0 C3.76687864 1.88343932 4.79421646 2.69132469 7 6 C6.01 6 5.02 6 4 6 C4.061875 7.11375 4.061875 7.11375 4.125 8.25 C3.99601866 11.08758952 3.42948778 12.58773938 2 15 C1.34 14.67 0.68 14.34 0 14 C0 12.68 0 11.36 0 10 C0.99 10 1.98 10 3 10 C2.01 6.7 1.02 3.4 0 0 Z " fill="#302117" transform="translate(493,263)"/>
<path d="M0 0 C0.89267578 0.00322266 1.78535156 0.00644531 2.70507812 0.00976562 C4.09823242 0.02233398 4.09823242 0.02233398 5.51953125 0.03515625 C6.45990234 0.03966797 7.40027344 0.04417969 8.36914062 0.04882812 C10.69016837 0.06060999 13.01106769 0.07706067 15.33203125 0.09765625 C15.33203125 0.42765625 15.33203125 0.75765625 15.33203125 1.09765625 C14.28402344 1.15824219 13.23601562 1.21882812 12.15625 1.28125 C10.77733077 1.36567363 9.3984252 1.45032072 8.01953125 1.53515625 C6.9840918 1.59413086 6.9840918 1.59413086 5.92773438 1.65429688 C2.8604159 1.8469304 0.26234973 2.12088342 -2.66796875 3.09765625 C-4.06236539 3.16431001 -5.4596675 3.18303824 -6.85546875 3.16015625 C-8.74265625 3.12921875 -8.74265625 3.12921875 -10.66796875 3.09765625 C-6.91148694 0.59333504 -4.40847856 -0.02807948 0 0 Z " fill="#725C64" transform="translate(118.66796875,134.90234375)"/>
<path d="M0 0 C2.27733832 3.41600748 2.62779248 5.96091086 3.2421875 9.94140625 C3.82891211 12.18850652 3.82891211 12.18850652 6.0703125 13.27734375 C6.70710938 13.51582031 7.34390625 13.75429688 8 14 C7.67 15.32 7.34 16.64 7 18 C7 17.01 7 16.02 7 15 C5.35 14.67 3.7 14.34 2 14 C1.66179834 12.4176994 1.32964061 10.83410625 1 9.25 C0.814375 8.36828125 0.62875 7.4865625 0.4375 6.578125 C0 4 0 4 0 0 Z " fill="#114751" transform="translate(483,344)"/>
<path d="M0 0 C0.66 0.33 1.32 0.66 2 1 C2 1.99 2 2.98 2 4 C1.34 4 0.68 4 0 4 C0.66 5.98 1.32 7.96 2 10 C0.02 10 -1.96 10 -4 10 C-3.29445932 6.33118845 -1.72264494 3.29549466 0 0 Z " fill="#F9C2A2" transform="translate(492,267)"/>
<path d="M0 0 C0.33 0 0.66 0 1 0 C1 2.64 1 5.28 1 8 C0.34 8 -0.32 8 -1 8 C-1 11.63 -1 15.26 -1 19 C-1.66 19.33 -2.32 19.66 -3 20 C-3.40850553 12.91923749 -1.90420731 6.80074041 0 0 Z " fill="#E22E2E" transform="translate(118,226)"/>
<path d="M0 0 C0.99 0.495 0.99 0.495 2 1 C2 1.66 2 2.32 2 3 C2.66 3 3.32 3 4 3 C4.67154933 4.28913487 5.33708859 5.58140204 6 6.875 C6.556875 7.95394531 6.556875 7.95394531 7.125 9.0546875 C8 11 8 11 8 13 C6 13 6 13 3.875 11.3125 C2 9 2 9 1.75 6.25 C1.87375 5.13625 1.87375 5.13625 2 4 C1.34 4 0.68 4 0 4 C0 2.68 0 1.36 0 0 Z " fill="#AD414B" transform="translate(161,155)"/>
<path d="M0 0 C2.92300138 2.47783163 3.97340327 4.9851711 5.25 8.5625 C5.60578125 9.53316406 5.9615625 10.50382813 6.328125 11.50390625 C7 14 7 14 6 16 C5.34 15.34 4.68 14.68 4 14 C4 13.01 4 12.02 4 11 C3.34 11 2.68 11 2 11 C0.80712589 7.12315913 0 4.08378077 0 0 Z " fill="#A74E5B" transform="translate(169,168)"/>
<path d="M0 0 C1.33572267 3.03573335 0.89149357 4.40011746 0 7.6875 C-2 11 -2 11 -5.6875 11.9375 C-6.780625 11.958125 -7.87375 11.97875 -9 12 C-8.2575 11.319375 -7.515 10.63875 -6.75 9.9375 C-3.75618047 6.96926868 -1.96562715 3.71285128 0 0 Z " fill="#FDC9C5" transform="translate(145,278)"/>
<path d="M0 0 C0.66 0.33 1.32 0.66 2 1 C1.8125 3.8125 1.8125 3.8125 1 7 C-2.29363353 9.74469461 -4.76464012 10.36303085 -9 10 C-8.39671875 9.75507813 -7.7934375 9.51015625 -7.171875 9.2578125 C-4.61035221 7.77434067 -3.72499008 6.41526069 -2.25 3.875 C-1.82203125 3.15054687 -1.3940625 2.42609375 -0.953125 1.6796875 C-0.63859375 1.12539063 -0.3240625 0.57109375 0 0 Z " fill="#163D41" transform="translate(434,256)"/>
<path d="M0 0 C5.94 0.99 5.94 0.99 12 2 C12 2.66 12 3.32 12 4 C8.04 4 4.08 4 0 4 C0 2.68 0 1.36 0 0 Z " fill="#A7C2BB" transform="translate(425,236)"/>
<path d="M0 0 C0.33 0 0.66 0 1 0 C1 2.64 1 5.28 1 8 C2.98491642 7.73323796 2.98491642 7.73323796 5 7 C5.33 6.01 5.66 5.02 6 4 C6.66 4.33 7.32 4.66 8 5 C7.67 6.32 7.34 7.64 7 9 C4.69 9.33 2.38 9.66 0 10 C0 6.7 0 3.4 0 0 Z " fill="#104752" transform="translate(445,219)"/>
<path d="M0 0 C1.84187025 2.76280538 2.72248277 4.80707826 3.6875 7.9375 C3.95949219 8.79214844 4.23148438 9.64679688 4.51171875 10.52734375 C5.02075548 13.10510574 4.84888744 14.54449337 4 17 C3.67 16.01 3.34 15.02 3 14 C2.34 13.67 1.68 13.34 1 13 C0.5859375 10.05859375 0.5859375 10.05859375 0.375 6.4375 C0.30023438 5.23996094 0.22546875 4.04242188 0.1484375 2.80859375 C0.09945312 1.88175781 0.05046875 0.95492187 0 0 Z " fill="#A1575F" transform="translate(176,185)"/>
<path d="M0 0 C0 0.66 0 1.32 0 2 C0.66 2.33 1.32 2.66 2 3 C-0.31 3 -2.62 3 -5 3 C-5 3.66 -5 4.32 -5 5 C-6.98 5.33 -8.96 5.66 -11 6 C-11 5.34 -11 4.68 -11 4 C-4.5 0 -4.5 0 0 0 Z " fill="#8D4852" transform="translate(108,138)"/>
<path d="M0 0 C0.33 0 0.66 0 1 0 C1 3.96 1 7.92 1 12 C0.01 12.495 0.01 12.495 -1 13 C-3.33193863 5.75871688 -3.33193863 5.75871688 -1.6875 2 C-1.130625 1.34 -0.57375 0.68 0 0 Z " fill="#F6F0EB" transform="translate(440,233)"/>
<path d="M0 0 C4.77576339 0.4682121 8.04476345 1.24331998 12 4 C8.94730154 5.52634923 6.24154311 4.83794444 2.875 4.5625 C1.59367187 4.46066406 0.31234375 4.35882813 -1.0078125 4.25390625 C-1.99523437 4.17011719 -2.98265625 4.08632813 -4 4 C-4 3.67 -4 3.34 -4 3 C-0.535 2.505 -0.535 2.505 3 2 C2.01 1.34 1.02 0.68 0 0 Z " fill="#5F727E" transform="translate(101,363)"/>
<path d="M0 0 C0.33 0 0.66 0 1 0 C2.86783046 5.48675196 3.2358396 10.22192976 3 16 C2.34 15.67 1.68 15.34 1 15 C-0.24024621 10.03901518 -0.10151176 5.07558808 0 0 Z " fill="#D70605" transform="translate(77,288)"/>
<path d="M0 0 C0.66 0 1.32 0 2 0 C0.37621488 4.72373854 -2.10993018 8.94181834 -5 13 C-5.33 13 -5.66 13 -6 13 C-6 11.35 -6 9.7 -6 8 C-5.01 8 -4.02 8 -3 8 C-3.33 7.01 -3.66 6.02 -4 5 C-3.34 5 -2.68 5 -2 5 C-1.34 3.35 -0.68 1.7 0 0 Z " fill="#E41D1D" transform="translate(155,308)"/>
<path d="M0 0 C1.40459731 2.59310273 2.54608353 5.25924537 3.625 8 C3.88539063 8.66 4.14578125 9.32 4.4140625 10 C5 12 5 12 5 16 C4.34 16 3.68 16 3 16 C2.54427083 14.01432292 2.08854167 12.02864583 1.6328125 10.04296875 C1.01992277 7.72257026 1.01992277 7.72257026 -1 5 C-0.625 2.3125 -0.625 2.3125 0 0 Z " fill="#FCC1C1" transform="translate(166,189)"/>
<path d="M0 0 C0.99 0.66 1.98 1.32 3 2 C2.67 3.65 2.34 5.3 2 7 C1.01 7.33 0.02 7.66 -1 8 C-1 7.34 -1 6.68 -1 6 C-1.66 6 -2.32 6 -3 6 C-3 5.34 -3 4.68 -3 4 C-2.34 3.67 -1.68 3.34 -1 3 C-0.67 2.01 -0.34 1.02 0 0 Z " fill="#C10A08" transform="translate(95,344)"/>
<path d="M0 0 C-2.55674387 1.27837194 -3.28481232 0.69805357 -6 0 C-7.74886981 -0.06624507 -9.50002748 -0.08552595 -11.25 -0.0625 C-12.58804688 -0.04896484 -12.58804688 -0.04896484 -13.953125 -0.03515625 C-14.62859375 -0.02355469 -15.3040625 -0.01195312 -16 0 C-15 -2 -15 -2 -13.3125 -2.625 C-7.85268136 -3.510376 -4.58912018 -3.23937895 0 0 Z " fill="#FCBCBB" transform="translate(142,199)"/>
<path d="M0 0 C0 0.99 0 1.98 0 3 C-1.79036458 3.9765625 -3.58072917 4.953125 -5.37109375 5.9296875 C-7.16618315 6.91410024 -7.16618315 6.91410024 -8 9 C-8.66 9 -9.32 9 -10 9 C-9.1875 7.0625 -9.1875 7.0625 -8 5 C-7.01 4.67 -6.02 4.34 -5 4 C-5 3.34 -5 2.68 -5 2 C-2 0 -2 0 0 0 Z " fill="#7F525A" transform="translate(97,144)"/>
<path d="M0 0 C0.99 0 1.98 0 3 0 C3 0.66 3 1.32 3 2 C3.66 2 4.32 2 5 2 C6.4783226 4.95664519 6.06032783 7.74229737 6 11 C4.22293791 8.33440687 3.12451727 5.9719385 2 3 C1.01 3.495 1.01 3.495 0 4 C0 2.68 0 1.36 0 0 Z " fill="#144149" transform="translate(479,306)"/>
<path d="M0 0 C0.33 0 0.66 0 1 0 C0.67 5.94 0.34 11.88 0 18 C-0.99 17.01 -1.98 16.02 -3 15 C-2.890625 12.6953125 -2.890625 12.6953125 -2.25 10.125 C-2.04890625 9.28195312 -1.8478125 8.43890625 -1.640625 7.5703125 C-1.42921875 6.72210938 -1.2178125 5.87390625 -1 5 C-0.65868761 3.33494903 -0.32297514 1.66870487 0 0 Z " fill="#276875" transform="translate(460,282)"/>
<path d="M0 0 C0.66 0 1.32 0 2 0 C2 0.66 2 1.32 2 2 C2.66 2 3.32 2 4 2 C5.29243536 6.1196377 6.26252625 9.66831683 6 14 C3.47524538 11.47524538 2.95692129 9.26502003 1.875 5.875 C1.52179688 4.77929688 1.16859375 3.68359375 0.8046875 2.5546875 C0.53914062 1.71164063 0.27359375 0.86859375 0 0 Z " fill="#E21919" transform="translate(163,181)"/>
<path d="M0 0 C2.125 0.375 2.125 0.375 4 1 C3.19152271 2.16945792 2.37810888 3.33550461 1.5625 4.5 C1.11003906 5.1496875 0.65757813 5.799375 0.19140625 6.46875 C-0.20175781 6.9740625 -0.59492187 7.479375 -1 8 C-1.33 8 -1.66 8 -2 8 C-2.125 5.125 -2.125 5.125 -2 2 C-1.34 1.34 -0.68 0.68 0 0 Z " fill="#E91010" transform="translate(118,201)"/>
<path d="M0 0 C0.99 0 1.98 0 3 0 C3.50367757 1.45706726 4.00282556 2.91570096 4.5 4.375 C4.91765625 5.59316406 4.91765625 5.59316406 5.34375 6.8359375 C6 9 6 9 6 11 C4.68 11.33 3.36 11.66 2 12 C2 11.01 2 10.02 2 9 C2.66 9 3.32 9 4 9 C3.67 8.236875 3.34 7.47375 3 6.6875 C2 4 2 4 2 1 C1.34 0.67 0.68 0.34 0 0 Z " fill="#CAA690" transform="translate(490,262)"/>
<path d="M0 0 C1.98 0.66 3.96 1.32 6 2 C6.33 3.98 6.66 5.96 7 8 C3.75700849 5.61042731 1.49097658 3.7952131 0 0 Z " fill="#7B4A50" transform="translate(83,346)"/>
<path d="M0 0 C-4.37384413 2.91589609 -7.70542471 4.30254716 -13 4 C-8.61350163 0.52105302 -5.57581513 -0.123907 0 0 Z " fill="#083139" transform="translate(524,320)"/>
<path d="M0 0 C9.41002278 -0.3690205 9.41002278 -0.3690205 14 2 C14 2.66 14 3.32 14 4 C9.13103697 3.40380045 4.67209049 2.43023178 0 1 C0 0.67 0 0.34 0 0 Z " fill="#0E2F36" transform="translate(534,305)"/>
<path d="M0 0 C2.1793144 1.75864246 2.93686419 2.69396 3.51171875 5.48046875 C3.56972656 6.37378906 3.62773438 7.26710938 3.6875 8.1875 C3.75324219 9.08855469 3.81898437 9.98960937 3.88671875 10.91796875 C3.92410156 11.60503906 3.96148437 12.29210937 4 13 C3.34 12.67 2.68 12.34 2 12 C0.73238238 7.70418473 0 4.49055702 0 0 Z " fill="#7C5D65" transform="translate(62,298)"/>
<path d="M0 0 C0.33 1.32 0.66 2.64 1 4 C-0.65 5.32 -2.3 6.64 -4 8 C-4 6.02 -4 4.04 -4 2 C-2.68 1.34 -1.36 0.68 0 0 Z " fill="#F5C8B2" transform="translate(441,230)"/>
<path d="M0 0 C0.66 0.33 1.32 0.66 2 1 C2 5 2 5 0.125 7.25 C-2 9 -2 9 -4 9 C-2.80100302 5.9168649 -1.52299523 2.93720508 0 0 Z " fill="#7F4F56" transform="translate(81,158)"/>
<path d="M0 0 C1.485 0.99 1.485 0.99 3 2 C3 2.66 3 3.32 3 4 C3.66 4 4.32 4 5 4 C5.33 5.98 5.66 7.96 6 10 C5.34 10 4.68 10 4 10 C0 3.375 0 3.375 0 0 Z " fill="#836166" transform="translate(74,331)"/>
<path d="M0 0 C1.98 0 3.96 0 6 0 C6.33 0.99 6.66 1.98 7 3 C4.36 3 1.72 3 -1 3 C-0.67 2.01 -0.34 1.02 0 0 Z " fill="#000508" transform="translate(187,253)"/>
<path d="M0 0 C2.64 0 5.28 0 8 0 C6.25 2.0625 6.25 2.0625 4 4 C1.75 3.75 1.75 3.75 0 3 C0 2.01 0 1.02 0 0 Z " fill="#B30D0F" transform="translate(108,138)"/>
<path d="M0 0 C3.96 0.33 7.92 0.66 12 1 C12 1.33 12 1.66 12 2 C10.56359829 2.19573608 9.12580496 2.38127816 7.6875 2.5625 C6.88699219 2.66691406 6.08648437 2.77132813 5.26171875 2.87890625 C3 3 3 3 0 2 C0 1.34 0 0.68 0 0 Z " fill="#FABFB8" transform="translate(124,329)"/>
<path d="M0 0 C0.33 0 0.66 0 1 0 C1.34615998 5.65394631 0.43425238 9.03006806 -2 14 C-2.33 14 -2.66 14 -3 14 C-3.125 11.125 -3.125 11.125 -3 8 C-2.34 7.34 -1.68 6.68 -1 6 C-0.60235737 4.01178687 -0.26224651 2.01055661 0 0 Z " fill="#9E5C68" transform="translate(178,308)"/>
<path d="M0 0 C0.33 0 0.66 0 1 0 C1.3636198 4.24223102 0.5393228 6.58168085 -2 10 C-2.66 10 -3.32 10 -4 10 C-2.66666667 6.66666667 -1.33333333 3.33333333 0 0 Z " fill="#FDC7CA" transform="translate(158,305)"/>
<path d="M0 0 C-1.32 0.33 -2.64 0.66 -4 1 C-4 1.99 -4 2.98 -4 4 C-4.99 4.33 -5.98 4.66 -7 5 C-7.66 3.68 -8.32 2.36 -9 1 C-5.92677456 0.08941469 -3.19902639 -0.08886184 0 0 Z " fill="#214B53" transform="translate(419,267)"/>
<path d="M0 0 C0.8125 1.6875 0.8125 1.6875 1 4 C-1.4375 6.75 -1.4375 6.75 -4 9 C-2.25 2.25 -2.25 2.25 0 0 Z " fill="#EB1818" transform="translate(117,181)"/>
<path d="M0 0 C2.5625 2.125 2.5625 2.125 5 5 C4.8125 8.3125 4.8125 8.3125 4 11 C3.67 11 3.34 11 3 11 C1.72746564 7.35206816 0.67170806 3.8063457 0 0 Z " fill="#1A4854" transform="translate(454,325)"/>
<path d="M0 0 C0.33 1.32 0.66 2.64 1 4 C0.34 4 -0.32 4 -1 4 C-1.103125 4.639375 -1.20625 5.27875 -1.3125 5.9375 C-1.539375 6.618125 -1.76625 7.29875 -2 8 C-2.99 8.33 -3.98 8.66 -5 9 C-3.7508258 5.54074837 -2.32472205 2.85306797 0 0 Z " fill="#E83636" transform="translate(124,217)"/>
<path d="M0 0 C1.32 0.33 2.64 0.66 4 1 C4.33 2.98 4.66 4.96 5 7 C3.29115995 5.37660195 1.62553283 3.70680947 0 2 C0 1.34 0 0.68 0 0 Z " fill="#E91A1E" transform="translate(155,168)"/>
<path d="M0 0 C2.15377564 2.62198774 3.40072174 4.64404172 4 8 C0.125 6.25 0.125 6.25 -1 4 C-0.5625 1.875 -0.5625 1.875 0 0 Z " fill="#E81D1A" transform="translate(99,319)"/>
<path d="M0 0 C3.36720387 1.39332574 4.9859524 2.9789286 7 6 C4.625 5.8125 4.625 5.8125 2 5 C0.6875 2.4375 0.6875 2.4375 0 0 Z " fill="#173238" transform="translate(493,263)"/>
<path d="M0 0 C1.98 0.99 1.98 0.99 4 2 C4 2.66 4 3.32 4 4 C4.99 4.33 5.98 4.66 7 5 C6.67 5.66 6.34 6.32 6 7 C1.2 4.53846154 1.2 4.53846154 0.1875 1.8125 C0.125625 1.214375 0.06375 0.61625 0 0 Z " fill="#9D4D59" transform="translate(151,144)"/>
<path d="M0 0 C2.64 0 5.28 0 8 0 C7.34 1.32 6.68 2.64 6 4 C4.02 3.01 2.04 2.02 0 1 C0 0.67 0 0.34 0 0 Z " fill="#A91312" transform="translate(94,356)"/>
<path d="M0 0 C2 1.5625 2 1.5625 4 4 C4.25 7.75 4.25 7.75 4 11 C3.33333333 9.66666667 2.66666667 8.33333333 2 7 C1.62875 6.319375 1.2575 5.63875 0.875 4.9375 C0 3 0 3 0 0 Z " fill="#1D5A64" transform="translate(461,344)"/>
<path d="M0 0 C2.6855594 2.6855594 3.06049974 5.37621328 4 9 C3.01 9 2.02 9 1 9 C0.29925156 5.846632 0 3.27275026 0 0 Z " fill="#FCCDCA" transform="translate(104,302)"/>
<path d="M0 0 C0 0.33 0 0.66 0 1 C-1.98 1 -3.96 1 -6 1 C-6 0.34 -6 -0.32 -6 -1 C-7.32 -1.33 -8.64 -1.66 -10 -2 C-5.93943859 -3.71792983 -3.64270496 -2.06971873 0 0 Z " fill="#C0C5B8" transform="translate(411,270)"/>
<path d="M0 0 C1.134375 0.020625 2.26875 0.04125 3.4375 0.0625 C3.4375 0.3925 3.4375 0.7225 3.4375 1.0625 C2.509375 1.330625 1.58125 1.59875 0.625 1.875 C-2.32490366 2.97398371 -3.61865186 3.68668561 -5.5625 6.0625 C-4.48849278 0.07874549 -4.48849278 0.07874549 0 0 Z " fill="#D91016" transform="translate(208.5625,245.9375)"/>
<path d="M0 0 C0.33 0 0.66 0 1 0 C1 1.98 1 3.96 1 6 C0.34 6 -0.32 6 -1 6 C-1.33 6.99 -1.66 7.98 -2 9 C-2.25 3.375 -2.25 3.375 0 0 Z " fill="#8E3F49" transform="translate(76,167)"/>
</svg>
